<svg width="24" height="25" viewBox="0 0 24 25" fill="none" xmlns="http://www.w3.org/2000/svg">
<path d="M5.31292 9.82355C7.7266 5.55261 8.93343 3.41714 10.5895 2.86744C11.5005 2.56502 12.4819 2.56502 13.393 2.86744C15.049 3.41714 16.2558 5.55261 18.6695 9.82355C21.0832 14.0945 22.29 16.23 21.928 17.97C21.7288 18.9272 21.2381 19.7955 20.5262 20.4503C19.2322 21.6406 16.8186 21.6406 11.9912 21.6406C7.16386 21.6406 4.75018 21.6406 3.45617 20.4503C2.74429 19.7955 2.2536 18.9272 2.05443 17.97C1.69241 16.23 2.89924 14.0945 5.31292 9.82355Z" stroke="#141B34" stroke-width="1.5"/>
<path d="M12.2334 17.1406V13.1406C12.2334 12.6692 12.2334 12.4335 12.087 12.2871C11.9405 12.1406 11.7048 12.1406 11.2334 12.1406" stroke="#141B34" stroke-width="1.5" stroke-linecap="round" stroke-linejoin="round"/>
<path d="M11.9832 9.14062H11.9922" stroke="#141B34" stroke-width="2" stroke-linecap="round" stroke-linejoin="round"/>
</svg>
