<svg width="25" height="25" viewBox="0 0 25 25" fill="none" xmlns="http://www.w3.org/2000/svg">
<path d="M6.30999 9.82355C8.72367 5.55261 9.9305 3.41714 11.5865 2.86744C12.4976 2.56502 13.479 2.56502 14.39 2.86744C16.0461 3.41714 17.2529 5.55261 19.6666 9.82355C22.0802 14.0945 23.2871 16.23 22.9251 17.97C22.7259 18.9272 22.2352 19.7955 21.5233 20.4503C20.2293 21.6406 17.8156 21.6406 12.9883 21.6406C8.16093 21.6406 5.74725 21.6406 4.45324 20.4503C3.74136 19.7955 3.25067 18.9272 3.0515 17.97C2.68948 16.23 3.89631 14.0945 6.30999 9.82355Z" stroke="#FF7B1B" stroke-width="1.5"/>
<path d="M13.2305 17.1406V13.1406C13.2305 12.6692 13.2305 12.4335 13.084 12.2871C12.9376 12.1406 12.7019 12.1406 12.2305 12.1406" stroke="#FF7B1B" stroke-width="1.5" stroke-linecap="round" stroke-linejoin="round"/>
<path d="M12.9803 9.14062H12.9893" stroke="#FF7B1B" stroke-width="2" stroke-linecap="round" stroke-linejoin="round"/>
</svg>
