<svg width="248" height="58" viewBox="0 0 248 58" fill="none" xmlns="http://www.w3.org/2000/svg">
<path d="M77.7723 18.833H80.867L89.5356 38.9607H85.4421L83.5693 34.355H74.8471L73.0278 38.9607H69.0234L77.7723 18.833ZM82.3207 31.2845L79.226 23.0995L76.0689 31.2845H82.3207Z" fill="#BEBEBE"/>
<path d="M93.3633 18.833H97.4836L102.968 34.0426L108.623 18.833H112.484L104.36 38.9607H101.265L93.3633 18.833Z" fill="#BEBEBE"/>
<path d="M125.285 18.833H128.38L137.04 38.9607H132.946L131.073 34.355H122.351L120.532 38.9607H116.527L125.285 18.833ZM129.825 31.2845L126.73 23.0995L123.573 31.2845H129.825Z" fill="#BEBEBE"/>
<path d="M144.957 18.833H148.533V35.7206H157.086V38.9607H144.957V18.833Z" fill="#BEBEBE"/>
<path d="M171.887 18.833H174.981L183.65 38.9607H179.556L177.684 34.355H168.953L167.133 38.9607H163.129L171.887 18.833ZM176.426 31.2845L173.332 23.0995L170.174 31.2845H176.426Z" fill="#BEBEBE"/>
<path d="M191.555 18.833H196.299L206.047 33.7927H206.101V18.833H209.677V38.9607H205.128L195.184 23.5191H195.131V38.9607H191.555V18.833Z" fill="#BEBEBE"/>
<path d="M233.662 23.5539C232.922 22.7595 232.208 22.2239 231.504 21.9651C230.826 21.6973 230.13 21.5634 229.435 21.5634C228.391 21.5634 227.446 21.7509 226.59 22.1347C225.76 22.4917 225.038 23.0094 224.432 23.6699C223.825 24.3126 223.352 25.0713 223.014 25.946C222.692 26.8208 222.532 27.758 222.532 28.7577C222.532 29.8377 222.692 30.8374 223.014 31.7389C223.352 32.6493 223.825 33.4348 224.432 34.0953C225.038 34.7558 225.76 35.2824 226.59 35.6573C227.446 36.0322 228.391 36.2286 229.435 36.2286C230.246 36.2286 231.031 36.0411 231.789 35.6573C232.565 35.2556 233.287 34.6308 233.947 33.7829L236.899 35.8894C235.99 37.139 234.884 38.0494 233.573 38.6207C232.271 39.1919 230.871 39.4775 229.399 39.4775C227.847 39.4775 226.42 39.2276 225.109 38.7367C223.825 38.2279 222.701 37.5139 221.756 36.6034C220.829 35.6751 220.097 34.5684 219.571 33.2741C219.045 31.9888 218.777 30.5517 218.777 28.9808C218.777 27.3652 219.045 25.9103 219.571 24.5982C220.097 23.2683 220.829 22.1436 221.756 21.2153C222.701 20.2871 223.816 19.573 225.109 19.0821C226.411 18.5733 227.847 18.3145 229.399 18.3145C230.764 18.3145 232.021 18.5644 233.18 19.0553C234.358 19.5284 235.446 20.3406 236.445 21.501L233.662 23.5539Z" fill="#BEBEBE"/>
<path d="M244.98 18.833H248.557V26.8484H257.957V18.833H261.533V38.9607H257.957V30.0885H248.557V38.9607H244.98V18.833Z" fill="#BEBEBE"/>
<path fill-rule="evenodd" clip-rule="evenodd" d="M58.4243 28.9004C58.4243 44.8508 45.5106 57.7754 29.5735 57.7754C13.6364 57.7754 0.722656 44.8508 0.722656 28.9004C0.722656 12.95 13.6364 0.0253906 29.5735 0.0253906C45.5106 0.0253906 58.4243 12.95 58.4243 28.9004ZM21.3954 40.3879H15.7947C14.6174 40.3879 14.0377 40.3879 13.681 40.1648C13.2975 39.9148 13.0656 39.5042 13.0389 39.049C13.0211 38.6295 13.3064 38.1207 13.8861 37.0943L27.7096 12.709C28.2982 11.6736 28.5925 11.1559 28.9671 10.9595C29.3684 10.7542 29.85 10.7542 30.2602 10.9595C30.6348 11.147 30.9291 11.6646 31.5177 12.709L34.3626 17.6717L34.3805 17.6985C35.0137 18.8053 35.3347 19.3766 35.4774 19.9657C35.6291 20.6083 35.6291 21.2956 35.4774 21.9383C35.3347 22.5363 35.0137 23.0986 34.3716 24.2322L27.112 37.0764L27.0942 37.1121C26.4521 38.2368 26.131 38.7991 25.6851 39.2275C25.1946 39.6917 24.606 40.0398 23.9639 40.2272C23.3752 40.3879 22.7153 40.3879 21.3954 40.3879ZM35.5309 40.3879H43.5575C44.7436 40.3879 45.3322 40.3879 45.6889 40.1558C46.0724 39.9059 46.3132 39.4864 46.3311 39.0312C46.3489 38.6295 46.0635 38.1386 45.5106 37.1746C45.4927 37.1389 45.4749 37.1121 45.4481 37.0764L41.426 30.1946L41.3814 30.1143C40.8195 29.1592 40.5341 28.6772 40.1685 28.4898C39.7672 28.2845 39.2856 28.2845 38.8842 28.4898C38.5186 28.6772 38.2154 29.186 37.6268 30.2036L33.6224 37.0854L33.6046 37.1121C33.016 38.1208 32.7217 38.6295 32.7484 39.049C32.7752 39.5042 33.0071 39.9238 33.3905 40.1737C33.7562 40.3879 34.3537 40.3879 35.5309 40.3879Z" fill="#BEBEBE"/>
</svg>
