<svg width="41" height="40" viewBox="0 0 41 40" fill="none" xmlns="http://www.w3.org/2000/svg">
<path d="M20.3984 40C31.4444 40 40.3984 31.046 40.3984 20C40.3984 8.954 31.4444 0 20.3984 0C9.35244 0 0.398438 8.954 0.398438 20C0.398438 31.046 9.35244 40 20.3984 40Z" fill="#C3C3C3"/>
<path fill-rule="evenodd" clip-rule="evenodd" d="M14.7309 27.9587H10.8495C10.0339 27.9587 9.63101 27.9587 9.38537 27.8015C9.12004 27.6295 8.95791 27.3445 8.93826 27.03C8.9235 26.7403 9.12497 26.3864 9.52784 25.6789L19.1116 8.78622C19.5194 8.06888 19.7257 7.71021 19.9861 7.57756C20.2662 7.43508 20.6003 7.43508 20.8804 7.57756C21.1408 7.71021 21.3471 8.06888 21.7549 8.78622L23.7251 12.2255L23.7352 12.243C24.1756 13.0126 24.399 13.4028 24.4965 13.8124C24.6046 14.2595 24.6046 14.7312 24.4965 15.1783C24.3982 15.591 24.1771 15.9841 23.73 16.7653L18.6959 25.6642L18.6829 25.687C18.2395 26.4629 18.0148 26.8561 17.7034 27.1528C17.3644 27.4772 16.9566 27.7128 16.5095 27.8457C16.1017 27.9587 15.6448 27.9587 14.7309 27.9587ZM24.5328 27.9587H30.0945C30.915 27.9587 31.3278 27.9587 31.5736 27.7967C31.8388 27.6247 32.0058 27.3347 32.0207 27.0204C32.0348 26.74 31.8378 26.3999 31.4516 25.7335C31.4383 25.7108 31.425 25.6878 31.4114 25.6643L28.6255 20.8985L28.5938 20.8448C28.2024 20.1828 28.0048 19.8485 27.751 19.7193C27.4711 19.5768 27.1416 19.5768 26.8617 19.7193C26.6062 19.8519 26.3999 20.2008 25.9921 20.9034L23.2161 25.6692L23.2066 25.6856C22.8002 26.3871 22.5971 26.7376 22.6118 27.0252C22.6314 27.3397 22.7936 27.6295 23.0589 27.8015C23.2996 27.9587 23.7123 27.9587 24.5328 27.9587Z" fill="white"/>
</svg>
