<svg width="25" height="25" viewBox="0 0 25 25" fill="none" xmlns="http://www.w3.org/2000/svg">
<path d="M2.26367 18.5176C2.26367 16.9771 2.26367 16.2069 2.6104 15.6411C2.80441 15.3245 3.0706 15.0583 3.3872 14.8643C3.95301 14.5176 4.72323 14.5176 6.26367 14.5176C7.80411 14.5176 8.57433 14.5176 9.14014 14.8643C9.45674 15.0583 9.72293 15.3245 9.91694 15.6411C10.2637 16.2069 10.2637 16.9771 10.2637 18.5176C10.2637 20.058 10.2637 20.8282 9.91694 21.394C9.72293 21.7106 9.45674 21.9768 9.14014 22.1708C8.57433 22.5176 7.80411 22.5176 6.26367 22.5176C4.72323 22.5176 3.95301 22.5176 3.3872 22.1708C3.0706 21.9768 2.80441 21.7106 2.6104 21.394C2.26367 20.8282 2.26367 20.058 2.26367 18.5176Z" stroke="#FF7B1B" stroke-width="1.5"/>
<path d="M14.2637 18.5176C14.2637 16.9771 14.2637 16.2069 14.6104 15.6411C14.8044 15.3245 15.0706 15.0583 15.3872 14.8643C15.953 14.5176 16.7232 14.5176 18.2637 14.5176C19.8041 14.5176 20.5743 14.5176 21.1401 14.8643C21.4567 15.0583 21.7229 15.3245 21.9169 15.6411C22.2637 16.2069 22.2637 16.9771 22.2637 18.5176C22.2637 20.058 22.2637 20.8282 21.9169 21.394C21.7229 21.7106 21.4567 21.9768 21.1401 22.1708C20.5743 22.5176 19.8041 22.5176 18.2637 22.5176C16.7232 22.5176 15.953 22.5176 15.3872 22.1708C15.0706 21.9768 14.8044 21.7106 14.6104 21.394C14.2637 20.8282 14.2637 20.058 14.2637 18.5176Z" stroke="#FF7B1B" stroke-width="1.5"/>
<path d="M2.26367 6.51758C2.26367 4.97714 2.26367 4.20692 2.6104 3.64111C2.80441 3.32451 3.0706 3.05832 3.3872 2.86431C3.95301 2.51758 4.72323 2.51758 6.26367 2.51758C7.80411 2.51758 8.57433 2.51758 9.14014 2.86431C9.45674 3.05832 9.72293 3.32451 9.91694 3.64111C10.2637 4.20692 10.2637 4.97714 10.2637 6.51758C10.2637 8.05802 10.2637 8.82823 9.91694 9.39405C9.72293 9.71065 9.45674 9.97684 9.14014 10.1708C8.57433 10.5176 7.80411 10.5176 6.26367 10.5176C4.72323 10.5176 3.95301 10.5176 3.3872 10.1708C3.0706 9.97684 2.80441 9.71065 2.6104 9.39405C2.26367 8.82823 2.26367 8.05802 2.26367 6.51758Z" stroke="#FF7B1B" stroke-width="1.5"/>
<path d="M14.2637 6.51758C14.2637 4.97714 14.2637 4.20692 14.6104 3.64111C14.8044 3.32451 15.0706 3.05832 15.3872 2.86431C15.953 2.51758 16.7232 2.51758 18.2637 2.51758C19.8041 2.51758 20.5743 2.51758 21.1401 2.86431C21.4567 3.05832 21.7229 3.32451 21.9169 3.64111C22.2637 4.20692 22.2637 4.97714 22.2637 6.51758C22.2637 8.05802 22.2637 8.82823 21.9169 9.39405C21.7229 9.71065 21.4567 9.97684 21.1401 10.1708C20.5743 10.5176 19.8041 10.5176 18.2637 10.5176C16.7232 10.5176 15.953 10.5176 15.3872 10.1708C15.0706 9.97684 14.8044 9.71065 14.6104 9.39405C14.2637 8.82823 14.2637 8.05802 14.2637 6.51758Z" stroke="#FF7B1B" stroke-width="1.5"/>
</svg>
