<svg width="15" height="16" viewBox="0 0 15 16" fill="none" xmlns="http://www.w3.org/2000/svg">
<path d="M14.155 4.05749C14.155 5.46159 13.0168 6.59984 11.6127 6.59984C10.2086 6.59984 9.07031 5.46159 9.07031 4.05749C9.07031 2.65339 10.2086 1.51514 11.6127 1.51514C13.0168 1.51514 14.155 2.65339 14.155 4.05749Z" stroke="#141B34" stroke-width="1.08958"/>
<path d="M1.07812 4.05749C1.07812 2.85901 1.07812 2.25977 1.45044 1.88746C1.82276 1.51514 2.422 1.51514 3.62048 1.51514C4.81896 1.51514 5.41819 1.51514 5.79051 1.88746C6.16283 2.25977 6.16283 2.85901 6.16283 4.05749C6.16283 5.25597 6.16283 5.85521 5.79051 6.22752C5.41819 6.59984 4.81896 6.59984 3.62048 6.59984C2.422 6.59984 1.82276 6.59984 1.45044 6.22752C1.07812 5.85521 1.07812 5.25597 1.07812 4.05749Z" stroke="#141B34" stroke-width="1.08958"/>
<path d="M1.07812 12.0477C1.07812 10.8492 1.07812 10.25 1.45044 9.87769C1.82276 9.50537 2.422 9.50537 3.62048 9.50537C4.81896 9.50537 5.41819 9.50537 5.79051 9.87769C6.16283 10.25 6.16283 10.8492 6.16283 12.0477C6.16283 13.2462 6.16283 13.8454 5.79051 14.2178C5.41819 14.5901 4.81896 14.5901 3.62048 14.5901C2.422 14.5901 1.82276 14.5901 1.45044 14.2178C1.07812 13.8454 1.07812 13.2462 1.07812 12.0477Z" stroke="#141B34" stroke-width="1.08958"/>
<path d="M9.07031 12.0477C9.07031 10.8492 9.07031 10.25 9.44263 9.87769C9.81495 9.50537 10.4142 9.50537 11.6127 9.50537C12.8111 9.50537 13.4104 9.50537 13.7827 9.87769C14.155 10.25 14.155 10.8492 14.155 12.0477C14.155 13.2462 14.155 13.8454 13.7827 14.2178C13.4104 14.5901 12.8111 14.5901 11.6127 14.5901C10.4142 14.5901 9.81495 14.5901 9.44263 14.2178C9.07031 13.8454 9.07031 13.2462 9.07031 12.0477Z" stroke="#141B34" stroke-width="1.08958"/>
<path d="M11.612 6.59997V9.50552M9.06961 12.0479H6.16406M6.16406 4.05762H9.06961" stroke="#141B34" stroke-width="1.08958" stroke-linecap="round" stroke-linejoin="round"/>
</svg>
