<svg width="309" height="40" viewBox="0 0 309 40" fill="none" xmlns="http://www.w3.org/2000/svg">
<g clip-path="url(#clip0_12606_483)">
<path d="M152.284 16.0802H132.901V1.2037H127.037V38.9815H132.901V21.0802H152.284V38.9815H158.086V1.2037H152.284M95.0926 1.08025C92.963 1.01852 88.642 1.01851 84.8148 1.01851V38.9506H90.7407V24.5679C92.2222 24.5679 95.2778 24.4444 97.7469 24.3827C101.204 24.321 110.216 22.5926 110.154 12.1914C110.247 0.462963 97.2531 1.08025 95.0926 1.08025ZM94.784 19.537H90.8642V5.8642H94.1975C95.7407 5.8642 104.846 5.18518 105.123 12.2531C105.494 19.1975 98.3025 19.537 94.784 19.537ZM40.4012 1.01851L40.463 38.9506H64.2593V34.0123H46.3889V21.142H59.0432C59.0432 20.0617 58.9815 18.4876 59.0432 16.4197H46.3889V6.08024H64.2593C64.1975 3.08641 64.2593 1.01851 64.2593 1.01851H40.4012ZM5.80247 10.2778C5.80247 4.07407 14.0123 3.82716 18.858 7.80864C20.5247 3.02469 20.6481 2.68518 20.6481 2.68518C6.51235 -4.10494 0.0617284 4.87654 0.0617284 10.6173C0.0617284 24.3518 19.537 21.4198 16.7284 31.0803C15.7407 34.5988 9.47531 36.6049 2.25309 32.2222C1.7284 33.7037 0.864198 35.4938 0 37.2839C9.53704 42.2839 21.9136 39.8765 22.3148 29.5679C22.8704 16.6049 5.80247 17.5309 5.80247 10.2778ZM255.926 11.6667C255.062 0.401231 244.136 1.26543 241.728 1.14197C239.722 1.08024 235.463 1.01851 231.79 1.01851V38.8889H237.716V22.963C239.722 22.963 240.37 22.963 243.395 22.8395L254.198 38.8889H261.389L249.444 21.8518C252.654 20.679 256.389 17.9321 255.926 11.6667ZM241.389 18.5185C240.062 18.5185 239.043 18.5185 237.716 18.4568V5.64814H240.833C242.315 5.64814 250.093 5.18518 250.772 11.3889C251.605 18.7346 242.994 18.5185 241.389 18.5185ZM295.031 1.08025H288.179L275.772 39.0123H281.636C283.488 32.1605 284.105 30.216 284.105 30.216L299.444 30.1543C301.235 35.2161 302.562 39.0741 302.562 39.0741H308.642L295.031 1.08025ZM285.463 25.8642L291.451 7.12962H291.512L297.778 25.8025L285.463 25.8642ZM194.877 0C182.809 0 174.938 8.91975 174.938 20C174.938 31.0802 182.809 40 194.877 40C206.944 40 214.815 31.0802 214.815 20C214.815 8.91975 206.944 0 194.877 0ZM194.877 34.537C186.019 34.537 181.019 28.0864 181.019 20C181.019 12.0062 186.019 5.46296 194.877 5.46296C203.673 5.46296 208.735 11.9136 208.735 20C208.735 27.9938 203.735 34.537 194.877 34.537Z" fill="#2F176C"/>
</g>
<defs>
<clipPath id="clip0_12606_483">
<rect width="308.642" height="40" fill="white"/>
</clipPath>
</defs>
</svg>
