<svg width="245" height="40" viewBox="0 0 245 40" fill="none" xmlns="http://www.w3.org/2000/svg">
<g clip-path="url(#clip0_924_51915)">
<path d="M1.49991 0C1.04588 0 0.684082 0.361799 0.684082 0.815826V39.151C0.684082 39.605 1.04588 39.9697 1.49991 39.9697H12.7146C18.5716 39.9697 20.8433 35.7914 20.8433 29.9345V26.6504C20.8585 22.7761 20.2685 20.8413 18.0589 19.237C18.0589 19.237 17.8464 19.1005 17.8313 18.8734C17.8313 18.6616 18.0884 18.4478 18.0884 18.4478C19.9046 16.5257 20.3438 14.5881 20.3438 12.6661V8.02232C20.2833 2.37725 18.3761 0 12.156 0H1.49991ZM26.0782 0C25.6394 0 25.2772 0.362162 25.2772 0.801055V39.1687C25.2772 39.6076 25.6394 39.9697 26.0782 39.9697H31.9664C32.4053 39.9697 32.7675 39.6076 32.7675 39.1687V0.801055C32.7675 0.362162 32.4053 0 31.9664 0H26.0782ZM38.4901 0C38.0361 0 37.6565 0.361799 37.6565 0.815826V39.151C37.6565 39.605 38.0209 39.9697 38.4901 39.9697H44.3457C44.7998 39.9697 45.1645 39.605 45.1645 39.151V24.0936C45.1645 23.6547 45.2854 23.6554 45.4217 24.0641L51.4281 39.2131C51.5643 39.6217 52.0504 39.9698 52.4893 39.9698H58.9065C59.3757 39.9849 59.6165 39.6368 59.4652 39.2131L53.0331 23.4138H53.11L53.713 23.1714C55.6805 22.1725 57.6946 20.0367 57.6946 15.9353V8.50418C57.6946 1.39109 53.5318 4.54027e-05 48.4013 4.54027e-05L38.4901 0ZM63.5828 0C63.1439 0 62.7788 0.362162 62.7788 0.801055V39.1687C62.7788 39.6227 63.1439 39.9697 63.5828 39.9697H69.468C69.922 39.9697 70.272 39.6076 70.272 39.1687L70.2568 24.0936C70.2568 23.6547 70.3775 23.6554 70.5288 24.0641L76.4465 39.2131C76.5827 39.6217 77.0658 39.9698 77.5047 39.9698H83.9221C84.3761 39.9698 84.6173 39.6217 84.4659 39.2131L76.8693 19.9021C76.7179 19.4935 76.7176 18.7974 76.8844 18.3887L83.7095 0.756757C83.876 0.348133 83.6342 4.54027e-05 83.1952 4.54027e-05H76.7779C76.3239 4.54027e-05 75.8563 0.332998 75.7049 0.756757L70.5587 14.815C70.4074 15.2237 70.272 15.2096 70.272 14.7707V0.801085C70.272 0.362192 69.9069 3.02685e-05 69.468 3.02685e-05L63.5828 0ZM87.6291 0C87.1902 0 86.828 0.362162 86.828 0.801055V39.1687C86.828 39.6227 87.1902 39.9697 87.6291 39.9697H104.702C105.141 39.9697 105.503 39.6076 105.503 39.1687V33.251C105.503 32.7969 105.141 32.4322 104.702 32.4322H95.2435C94.7894 32.4322 94.6966 32.3423 94.6966 31.8883V23.8216C94.6966 23.3827 94.7894 23.2925 95.2435 23.2925H100.721C101.16 23.2925 101.525 22.9126 101.525 22.4737V16.7068C101.525 16.2679 101.16 15.9057 100.721 15.9057H95.2435C94.7894 15.9057 94.6966 15.8158 94.6966 15.3618V8.03711C94.6966 7.59822 94.7894 7.508 95.2435 7.508H104.702C105.141 7.508 105.503 7.20495 105.503 6.76606V0.801055C105.503 0.362162 105.141 0 104.702 0H87.6291ZM110.664 0C110.226 0 109.863 0.361799 109.863 0.815826V39.1687C109.863 39.6227 110.226 39.9697 110.664 39.9697H116.52C116.974 39.9697 117.339 39.6076 117.339 39.1687V21.1111C117.339 20.657 117.46 20.643 117.611 21.0667L124.983 39.213C125.134 39.6216 125.617 39.9697 126.071 39.9697H131.415C131.854 39.9697 132.216 39.6076 132.216 39.1687L132.231 0.815826C132.231 0.361799 131.869 0 131.415 0H125.542C125.088 0 124.741 0.376933 124.741 0.815826V17.8744C124.741 18.3133 124.603 18.3424 124.436 17.9187L117.324 0.771498C117.173 0.362873 116.673 0 116.219 0H110.664ZM144.779 0C138.664 0 135.273 4.26903 135.349 10.2925C135.379 15.1808 138.238 18.5235 142.234 22.2314C144.504 24.3047 146.366 26.0147 146.366 28.7994C146.366 31.0847 145.048 32.3569 142.869 32.4174H136.165C135.726 32.4325 135.364 32.7969 135.364 33.251V39.151C135.364 39.605 135.726 39.9697 136.18 39.9697H145.003H145.018C151.692 40.106 154.161 34.4913 154.161 28.7403C154.146 23.2163 151.315 20.4925 147.88 16.9965C145.504 14.6204 143.053 12.7444 143.053 10.5348C143.053 9.00629 144.293 7.52314 145.852 7.508H150.286H150.301C150.755 7.508 151.12 7.14324 151.12 6.68921V0.833563V0.815856C151.119 0.361829 150.755 3.02685e-05 150.301 3.02685e-05L144.779 0ZM154.947 0C154.508 0 154.146 0.362162 154.146 0.801055V6.68921C154.146 7.1281 154.508 7.49026 154.947 7.49026H160.214C160.653 7.49026 161.015 7.85538 161.015 8.29427V39.151C161.015 39.605 161.396 39.955 161.819 39.955H168.053C168.492 39.955 168.854 39.5899 168.854 39.151V8.30904C168.854 7.85501 169.219 7.508 169.658 7.508H174.941C175.379 7.508 175.742 7.14289 175.742 6.704V0.801055C175.742 0.362162 175.379 0 174.941 0H154.947ZM188.425 0C176.787 0 175.999 8.23361 175.999 19.9021C175.999 31.5857 176.802 39.9697 188.425 39.9697C200.048 39.9697 200.849 31.5857 200.849 19.9021C200.849 8.21848 200.048 0 188.425 0ZM223.686 0C223.232 0 222.885 0.362162 222.885 0.801055V39.1687C222.885 39.6227 223.248 39.9697 223.686 39.9697H229.575C230.013 39.9697 230.376 39.6076 230.376 39.1687V24.0936H230.404C230.404 23.6547 230.528 23.6554 230.665 24.0641L236.579 39.2131C236.731 39.6217 237.201 39.9698 237.64 39.9698H244.058C244.497 39.9698 244.738 39.6217 244.587 39.2131L236.99 19.9021C236.839 19.4935 236.854 18.7974 237.005 18.3887L243.83 0.756757C243.997 0.348133 243.754 4.54027e-05 243.316 4.54027e-05H236.898C236.444 4.54027e-05 235.959 0.332998 235.808 0.756757L230.647 14.815C230.495 15.2237 230.375 15.2096 230.375 14.7707V0.801085C230.375 0.362192 230.013 3.02685e-05 229.574 3.02685e-05L223.686 0ZM216.453 0.0151342C204.83 0.0151342 203.376 8.24838 203.376 19.932C203.376 31.6156 204.83 39.9849 216.453 39.9849V40H219.102C219.556 40 219.918 39.6382 219.918 39.1842V33.2664C219.918 32.8124 219.556 32.4477 219.102 32.4477H216.453C211.883 32.4477 211.127 30.2838 211.127 19.9471C211.127 9.65587 211.868 7.52348 216.453 7.52348H219.102C219.556 7.52348 219.918 7.15872 219.918 6.70469V0.786919C219.918 0.348027 219.541 0.0154369 219.087 0.0154369L216.453 0.0151342ZM188.425 7.0827C193.011 7.0827 193.102 9.61118 193.102 19.9025C193.102 30.2391 193.011 32.4798 188.425 32.4798C183.84 32.4798 183.749 30.2391 183.749 19.9025C183.749 9.61118 183.855 7.0827 188.425 7.0827ZM8.68867 7.12992H10.5509C12.2459 7.12992 12.9422 8.40119 12.9422 11.6702C12.9422 15.3175 11.9584 15.8912 10.5509 15.8912H8.68867C8.24977 15.8912 8.15956 15.801 8.15956 15.3621V7.65903C8.15956 7.205 8.24976 7.12992 8.68867 7.12992ZM45.738 7.12992H48.085C49.9011 7.12992 50.3688 8.70245 50.4142 11.7293C50.4596 15.755 49.7951 16.6923 48.085 16.6923H45.738C45.2839 16.6923 45.1941 16.6024 45.1941 16.1484V7.6738C45.1941 7.21977 45.2991 7.12992 45.738 7.12992ZM8.73596 23.2928H11.0977C12.9138 23.2928 13.3816 24.8801 13.427 27.907C13.4573 31.9175 12.8079 32.8581 11.0977 32.8581H8.73596C8.28193 32.8581 8.19207 32.7653 8.19207 32.3113V23.8367C8.19207 23.3827 8.2971 23.2928 8.73596 23.2928Z" fill="#2F176C"/>
</g>
<defs>
<clipPath id="clip0_924_51915">
<rect width="243.948" height="40" fill="white" transform="translate(0.684082)"/>
</clipPath>
</defs>
</svg>
