<svg width="115" height="40" viewBox="0 0 115 40" fill="none" xmlns="http://www.w3.org/2000/svg">
<g clip-path="url(#clip0_924_51848)">
<path d="M107.146 40H0.424072L1.72421 34.2185H108.363L107.146 40Z" fill="#2F176C"/>
<path d="M112.955 27.4136C111.932 27.4136 110.963 28.2434 110.77 29.2116C110.742 29.35 110.742 29.4606 110.742 29.5989C110.742 30.4011 111.323 31.0097 112.181 31.0097C113.176 31.0097 114.145 30.1798 114.366 29.2116C114.394 29.0733 114.394 28.9627 114.394 28.852C114.394 28.0221 113.813 27.4136 112.955 27.4136ZM114.117 29.1563C113.951 30.0139 113.038 30.7607 112.181 30.7607C111.434 30.7331 110.991 30.2905 110.991 29.5989C110.991 29.4883 110.991 29.3776 111.019 29.267C111.185 28.4094 112.07 27.6625 112.928 27.6625C113.702 27.6902 114.145 28.1328 114.145 28.8244C114.145 28.9073 114.145 29.018 114.117 29.1563Z" fill="#2F176C"/>
<path d="M112.817 28.3541H112.042L111.683 30.0692H112.07L112.181 29.516H112.485L112.734 30.0692H113.176L112.872 29.4606C113.121 29.3776 113.287 29.2117 113.37 28.935C113.453 28.5478 113.232 28.3541 112.817 28.3541ZM112.983 28.935C112.955 29.0734 112.817 29.184 112.623 29.184H112.236L112.347 28.6861H112.706C112.9 28.6861 113.01 28.7691 112.983 28.935Z" fill="#2F176C"/>
<path d="M81.4476 24.8409C80.507 23.8174 81.0603 21.7704 81.5582 19.4744L83.218 11.6459H90.0506L91.2954 5.80913H84.4351L85.6523 0H79.2069L75.0022 20C74.366 22.9876 74.117 25.3112 75.4171 27.8285C76.6343 30.1798 80.7283 32.3928 85.9566 30.982L87.1184 25.5878C83.5776 26.0304 82.1668 25.5602 81.4476 24.8409Z" fill="#2F176C"/>
<path d="M26.8142 0L23.7437 14.4398H12.4297L15.5002 0H8.99953L2.38818 31.0097H8.88888L11.1572 20.2766H22.4988L20.2305 31.0097H26.6759L33.2596 0H26.8142Z" fill="#2F176C"/>
<path d="M63.9926 7.99446C61.7243 9.87551 60.4518 12.3375 59.622 16.2379L56.4961 30.982H62.9415L65.5417 18.7552C66.1503 15.9059 66.6206 14.1079 67.6994 13.0014C69.1655 11.4799 71.3232 11.3969 73.8958 11.6182L75.1406 5.78146C70.604 4.64729 66.6482 5.78146 63.9926 7.99446Z" fill="#2F176C"/>
<path d="M114.394 5.80908H94.2276L92.9828 11.6459H104.684L90.0506 25.4218L88.8611 31.0373H109.027L110.272 25.2282H98.5153L113.204 11.3969L114.394 5.80908Z" fill="#2F176C"/>
<path d="M46.3714 5.33887C44.1861 5.33887 41.1986 6.00277 38.2663 8.32642C31.655 13.4993 28.3908 31.4523 42.5817 31.4523C46.2608 31.4523 50.3548 30.2905 53.2041 28.1328L50.6315 23.7898C48.4738 25.4495 37.6578 29.0456 38.7919 20.2766H55.6937C55.6937 20.249 57.8514 13.2503 54.7532 9.01798C52.1252 5.39419 47.2566 5.33887 46.3714 5.33887ZM50.5761 14.9654H40.2304C40.59 13.5823 42.803 10.1521 46.8694 10.5118C51.2677 10.9267 50.5761 14.9654 50.5761 14.9654Z" fill="#2F176C"/>
</g>
<defs>
<clipPath id="clip0_924_51848">
<rect width="113.97" height="40" fill="white" transform="translate(0.424072)"/>
</clipPath>
</defs>
</svg>
