<svg width="42" height="40" viewBox="0 0 42 40" fill="none" xmlns="http://www.w3.org/2000/svg">
<g clip-path="url(#clip0_924_51909)">
<path d="M26.5414 35.361C19.8412 37.3623 6.84108 37.3101 3.23864 25.8067C0.123484 15.8695 4.56127 5.75829 14.6203 2.74756C24.1049 -0.106546 34.6512 6.15856 37.2791 14.6687C39.8025 22.7089 36.2871 32.4372 26.5414 35.361ZM34.9471 5.89752C30.9618 2.69535 25.5668 0.624383 19.7368 0.0848874C14.1852 -0.419802 8.49437 1.35531 5.20519 4.62709C2.07263 7.74225 0.297515 13.7811 0.471546 20.7598C0.575964 25.0061 1.49833 32.6983 6.4234 36.4922C12.2012 40.9125 20.3459 41.1736 28.2295 37.1709C36.2697 33.116 41.8039 25.65 41.6821 19.0543C41.6124 13.9377 39.2804 9.39554 34.9471 5.89752Z" fill="#2F176C"/>
<path d="M32.354 24.0837C32.1277 24.2925 31.9537 24.397 31.623 24.5014C30.6137 24.8146 29.8479 24.2577 29.3258 22.5696C28.7863 20.8119 29.3432 19.6111 30.109 19.3675C30.4048 19.263 30.6659 19.263 30.8399 19.2804C30.9617 19.5763 32.3366 23.9967 32.354 24.0837ZM29.7435 17.6968C28.0728 18.2189 26.2803 20.0114 27.3245 23.3876C28.1772 26.0677 30.2482 26.7812 31.8667 26.2591C32.267 26.1373 32.6324 25.9458 32.8935 25.7544C33.1197 26.4331 33.0501 27.4251 31.9363 27.7732C31.1184 28.0342 30.283 28.0168 29.3955 27.7384L29.291 27.7035L29.5347 29.4613L29.5695 29.4787C30.4222 29.7571 31.536 29.7397 32.5628 29.4264C34.5816 28.7999 35.5387 27.2337 34.7556 24.6928C34.7556 24.6928 32.5976 17.7142 32.5628 17.5923C32.0233 17.4183 30.9443 17.3139 29.7435 17.6968ZM24.0875 26.9378C23.8439 27.0248 23.5828 26.99 23.3566 26.8508C22.8345 26.5723 22.3646 25.8414 22.0513 24.7798C21.7033 23.7182 21.6859 22.8307 21.9469 22.3086C22.0688 22.0649 22.2602 21.9083 22.5038 21.8213C22.7649 21.7343 23.0085 21.7691 23.2696 21.9083C23.7917 22.1868 24.2789 22.9351 24.5922 23.9793C25.0795 25.5804 24.9055 26.6942 24.0875 26.9378ZM21.9643 20.0984C19.9282 20.7249 19.1276 22.7785 19.9456 25.4237C20.4155 26.9378 21.216 27.982 22.1732 28.4867C22.9041 28.8696 23.7394 28.9218 24.6096 28.6607C25.4798 28.3997 26.1585 27.8602 26.5413 27.0944C27.0634 26.1025 27.0982 24.7972 26.6632 23.3354C25.8452 20.6901 24.0353 19.4719 21.9643 20.0984ZM18.3619 21.2122L18.3097 21.2296C17.5788 21.508 17.0219 22.1868 16.7434 23.0917C16.639 22.8655 16.2387 22.0475 16.2387 22.0475L14.568 22.5696L17.1263 30.8187L19.1624 30.1922C19.1624 30.1922 17.5091 24.9016 17.5091 24.8494C17.7876 24.0663 18.5011 23.3876 19.3017 23.0569L18.3619 21.2122ZM11.4181 32.5938L13.5238 31.9499C13.5238 31.9499 12.3578 28.156 12.3056 28.0342C12.4274 27.9994 14.9683 27.2163 14.9683 27.2163L14.1155 25.4934C14.1155 25.4934 11.8705 26.1895 11.7487 26.2417C11.7139 26.1199 11.1048 24.1533 11.07 24.0315C11.1918 23.9967 14.0981 23.0917 14.0981 23.0917L13.5412 21.2818L8.38992 22.8655L11.4181 32.5938ZM27.0112 8.40352C27.5333 8.24689 28.6123 8.26429 29.3084 10.4397C29.8305 12.1278 29.5695 13.1894 28.5601 13.52C28.2643 13.6244 28.0206 13.6244 27.7422 13.5722C27.7248 13.4852 26.2977 8.8908 26.2455 8.78638C26.4717 8.61235 26.7328 8.49053 27.0112 8.40352ZM28.2468 15.2429C28.6471 15.2429 29.0126 15.1907 29.378 15.0863C30.8051 14.6512 32.3366 12.8587 31.3446 9.63914C30.6137 7.22011 28.8386 6.01929 26.5413 6.71542C24.9055 7.22011 24.0701 8.05545 23.8613 8.2991C23.9483 8.57755 26.9068 18.097 26.9068 18.097L28.8386 17.1573C28.8386 17.1573 28.2991 15.417 28.2468 15.2429ZM22.1036 13.0327L22.8345 15.3473C22.6605 15.504 22.3472 15.6084 22.0688 15.7128C21.5467 15.8694 20.955 15.7476 20.7809 15.1559C20.5199 14.3032 20.9898 13.6593 22.1036 13.0327ZM22.5038 17.3835C24.0179 16.9136 24.9403 16.1131 25.1839 15.7998C25.1317 15.6258 23.5828 10.5963 23.5828 10.5963C23.0259 8.76898 21.9817 8.15987 20.1892 8.73417C19.058 9.09964 18.3271 9.65654 17.6832 10.2308L17.6484 10.2656L18.4489 11.9015L18.5359 11.8145C19.0232 11.2054 19.7367 10.7355 20.2936 10.5615C20.6417 10.4571 20.9027 10.4571 21.0942 10.5615C21.3204 10.6833 21.477 10.927 21.5989 11.3098C21.5989 11.3098 21.6859 11.5361 21.7033 11.6231C19.2146 12.8761 18.3619 14.3554 18.8492 15.9042C19.3191 17.5923 21.0942 17.8186 22.5038 17.3835ZM13.8893 12.3366C14.4984 12.1278 15.1423 12.7543 15.5426 13.9377C15.4208 13.9725 13.5586 14.5642 13.4194 14.599C13.1584 13.3634 13.3324 12.5106 13.8893 12.3366ZM16.3431 19.2979C17.3003 19.002 18.2401 18.3581 18.7796 17.7142C18.6403 17.4183 18.0834 16.2697 17.9964 16.1305C17.4569 16.8266 16.7782 17.3487 16.0821 17.5749C14.9335 17.9404 14.2374 16.931 13.8371 16.0087C13.9763 15.9739 17.9964 14.7208 17.9964 14.7208L17.979 14.6686L17.805 14.0073C17.3177 12.4584 16.552 11.4143 15.647 10.927C15.0031 10.5789 14.2548 10.5441 13.4716 10.7877C12.6711 11.0314 12.0794 11.5187 11.6965 12.2322C11.1744 13.2242 11.0874 14.599 11.5573 16.0783C12.3926 18.8106 14.1852 19.9766 16.3431 19.2979ZM9.55593 19.1934C9.52113 19.0542 7.1369 11.4317 7.1369 11.4317L5.03113 12.0756L8.02446 21.6821L13.054 20.1158L12.1838 18.3407C12.1838 18.3581 9.67775 19.1412 9.55593 19.1934Z" fill="#2F176C"/>
<path d="M34.2509 17.1747L34.0943 17.2269L34.2161 17.5924L34.3728 17.5402C34.512 17.5054 34.5816 17.4183 34.5294 17.2791C34.4946 17.1747 34.3902 17.1399 34.2509 17.1747ZM34.9123 18.1319L34.3728 17.7316L34.2509 17.7664L34.4076 18.2711L34.1987 18.3233L33.7985 17.1051L34.1813 16.9833C34.4424 16.8963 34.6512 16.9833 34.7208 17.2095C34.773 17.3835 34.7208 17.5228 34.5816 17.6272L35.1037 18.0101L34.9123 18.1319ZM34.0943 16.6526C33.5722 16.8092 33.2938 17.3139 33.4852 17.9404C33.694 18.567 34.2161 18.7932 34.7382 18.6192C35.2603 18.4625 35.5562 17.9578 35.3473 17.3313C35.1385 16.6874 34.5816 16.496 34.0943 16.6526ZM34.773 18.741C34.1291 18.9498 33.5548 18.6366 33.3286 17.9927C33.1023 17.3313 33.4156 16.7222 34.0595 16.5308C34.7034 16.322 35.2777 16.6352 35.504 17.2965C35.6954 17.9404 35.3995 18.5496 34.773 18.741Z" fill="#2F176C"/>
</g>
<defs>
<clipPath id="clip0_924_51909">
<rect width="41.2242" height="40" fill="white" transform="translate(0.459839)"/>
</clipPath>
</defs>
</svg>
