<svg width="19" height="20" viewBox="0 0 19 20" fill="none" xmlns="http://www.w3.org/2000/svg">
<path d="M14.3984 1.66699V3.33366M4.39844 1.66699V3.33366" stroke="#AAAEB3" stroke-width="1.5" stroke-linecap="round" stroke-linejoin="round"/>
<path d="M9.3921 10.834H9.39957M9.3921 14.1673H9.39957M12.7217 10.834H12.7292M6.0625 10.834H6.06998M6.0625 14.1673H6.06998" stroke="#AAAEB3" stroke-width="2" stroke-linecap="round" stroke-linejoin="round"/>
<path d="M2.3125 6.66699H16.4792" stroke="#AAAEB3" stroke-width="1.5" stroke-linecap="round" stroke-linejoin="round"/>
<path d="M1.48047 10.2027C1.48047 6.57161 1.48047 4.75607 2.5239 3.62803C3.56733 2.5 5.24671 2.5 8.60547 2.5H10.1888C13.5476 2.5 15.2269 2.5 16.2704 3.62803C17.3138 4.75607 17.3138 6.57161 17.3138 10.2027V10.6306C17.3138 14.2617 17.3138 16.0773 16.2704 17.2053C15.2269 18.3333 13.5476 18.3333 10.1888 18.3333H8.60547C5.24671 18.3333 3.56733 18.3333 2.5239 17.2053C1.48047 16.0773 1.48047 14.2617 1.48047 10.6306V10.2027Z" stroke="#AAAEB3" stroke-width="1.5" stroke-linecap="round" stroke-linejoin="round"/>
<path d="M1.89844 6.66699H16.8984" stroke="#AAAEB3" stroke-width="1.5" stroke-linecap="round" stroke-linejoin="round"/>
</svg>
