<svg width="20" height="20" viewBox="0 0 20 20" fill="none" xmlns="http://www.w3.org/2000/svg">
<path d="M17.5001 5.41667C17.5001 7.0275 16.1942 8.33333 14.5834 8.33333C12.9726 8.33333 11.6667 7.0275 11.6667 5.41667C11.6667 3.80584 12.9726 2.5 14.5834 2.5C16.1942 2.5 17.5001 3.80584 17.5001 5.41667Z" stroke="#141B34" stroke-width="1.25"/>
<path d="M2.5 5.41667C2.5 4.04174 2.5 3.35427 2.92714 2.92714C3.35427 2.5 4.04174 2.5 5.41667 2.5C6.7916 2.5 7.47906 2.5 7.9062 2.92714C8.33333 3.35427 8.33333 4.04174 8.33333 5.41667C8.33333 6.7916 8.33333 7.47906 7.9062 7.9062C7.47906 8.33333 6.7916 8.33333 5.41667 8.33333C4.04174 8.33333 3.35427 8.33333 2.92714 7.9062C2.5 7.47906 2.5 6.7916 2.5 5.41667Z" stroke="#141B34" stroke-width="1.25"/>
<path d="M2.5 14.5827C2.5 13.2078 2.5 12.5203 2.92714 12.0932C3.35427 11.666 4.04174 11.666 5.41667 11.666C6.7916 11.666 7.47906 11.666 7.9062 12.0932C8.33333 12.5203 8.33333 13.2078 8.33333 14.5827C8.33333 15.9576 8.33333 16.6451 7.9062 17.0722C7.47906 17.4993 6.7916 17.4993 5.41667 17.4993C4.04174 17.4993 3.35427 17.4993 2.92714 17.0722C2.5 16.6451 2.5 15.9576 2.5 14.5827Z" stroke="#141B34" stroke-width="1.25"/>
<path d="M11.6667 14.5827C11.6667 13.2078 11.6667 12.5203 12.0939 12.0932C12.521 11.666 13.2085 11.666 14.5834 11.666C15.9583 11.666 16.6458 11.666 17.0729 12.0932C17.5001 12.5203 17.5001 13.2078 17.5001 14.5827C17.5001 15.9576 17.5001 16.6451 17.0729 17.0722C16.6458 17.4993 15.9583 17.4993 14.5834 17.4993C13.2085 17.4993 12.521 17.4993 12.0939 17.0722C11.6667 16.6451 11.6667 15.9576 11.6667 14.5827Z" stroke="#141B34" stroke-width="1.25"/>
<path d="M14.5833 8.33268V11.666M11.6666 14.5827H8.33325M8.33325 5.41602H11.6666" stroke="#141B34" stroke-width="1.25" stroke-linecap="round" stroke-linejoin="round"/>
</svg>
