<svg width="10" height="6" viewBox="0 0 10 6" fill="none" xmlns="http://www.w3.org/2000/svg">
<path d="M9.31778 0.742764L5.07072 4.98982C5.03128 5.02931 4.98444 5.06064 4.93288 5.08201C4.88132 5.10338 4.82606 5.11438 4.77024 5.11438C4.71443 5.11438 4.65917 5.10338 4.60761 5.08201C4.55605 5.06064 4.50921 5.02931 4.46976 4.98982L0.222705 0.742764C0.163242 0.683366 0.122739 0.607661 0.106324 0.525232C0.0899086 0.442803 0.0983197 0.357357 0.130492 0.279711C0.162665 0.202065 0.217152 0.13571 0.287056 0.0890476C0.35696 0.0423849 0.439137 0.0175121 0.523185 0.0175783H9.0173C9.10135 0.0175121 9.18353 0.0423849 9.25343 0.0890476C9.32334 0.13571 9.37782 0.202065 9.41 0.279711C9.44217 0.357357 9.45058 0.442803 9.43417 0.525232C9.41775 0.607661 9.37725 0.683366 9.31778 0.742764Z" fill="#434359"/>
</svg>
