<svg width="18" height="19" viewBox="0 0 18 19" fill="none" xmlns="http://www.w3.org/2000/svg">
<path d="M9.44118 1.20508C12.7687 1.20508 14.4325 1.20508 15.4663 2.18139C16.5 3.1577 16.5 4.72905 16.5 7.87175V11.2051C16.5 14.3478 16.5 15.9191 15.4663 16.8954C14.4325 17.8717 12.7687 17.8717 9.44118 17.8717H8.55882C5.23126 17.8717 3.56748 17.8717 2.53374 16.8954C1.5 15.9191 1.5 14.3478 1.5 11.2051L1.5 7.87174C1.5 4.72905 1.5 3.1577 2.53374 2.18139C3.56748 1.20508 5.23126 1.20508 8.55882 1.20508L9.44118 1.20508Z" stroke="#FE7016" stroke-width="1.25" stroke-linecap="round"/>
<path d="M5.66675 5.37109H12.3334" stroke="#FE7016" stroke-width="1.25" stroke-linecap="round"/>
<path d="M5.66675 9.53906H12.3334" stroke="#FE7016" stroke-width="1.25" stroke-linecap="round"/>
<path d="M5.66675 13.7051H9.00008" stroke="#FE7016" stroke-width="1.25" stroke-linecap="round"/>
</svg>
