<svg width="20" height="22" viewBox="0 0 20 22" fill="none" xmlns="http://www.w3.org/2000/svg">
<path d="M10.3419 1.14111C14.335 1.14111 16.3315 1.14111 17.572 2.31269C18.8125 3.48426 18.8125 5.36988 18.8125 9.14111V13.1411C18.8125 16.9124 18.8125 18.798 17.572 19.9695C16.3315 21.1411 14.335 21.1411 10.3419 21.1411H9.28309C5.29001 21.1411 3.29348 21.1411 2.05299 19.9695C0.8125 18.798 0.8125 16.9123 0.8125 13.1411L0.8125 9.14111C0.8125 5.36988 0.812501 3.48426 2.05299 2.31269C3.29348 1.14111 5.29002 1.14111 9.28309 1.14111L10.3419 1.14111Z" stroke="#141B34" stroke-width="1.5" stroke-linecap="round"/>
<path d="M5.8125 6.14111H13.8125" stroke="#141B34" stroke-width="1.5" stroke-linecap="round"/>
<path d="M5.8125 11.1411H13.8125" stroke="#141B34" stroke-width="1.5" stroke-linecap="round"/>
<path d="M5.8125 16.1411H9.8125" stroke="#141B34" stroke-width="1.5" stroke-linecap="round"/>
</svg>
