<svg width="23" height="22" viewBox="0 0 23 22" fill="none" xmlns="http://www.w3.org/2000/svg">
<path d="M19.457 10.2471V9.24707C19.457 5.47584 19.457 3.59022 18.2165 2.41864C16.9761 1.24707 14.9795 1.24707 10.9864 1.24707L9.92762 1.24707C5.93455 1.24707 3.93801 1.24707 2.69752 2.41864C1.45703 3.59022 1.45703 5.47583 1.45703 9.24707L1.45703 13.2471C1.45703 17.0183 1.45703 18.9039 2.69752 20.0755C3.93801 21.2471 5.93455 21.2471 9.92762 21.2471H10.457" stroke="#141B34" stroke-width="1.5" stroke-linecap="round"/>
<path d="M6.45703 6.24707H14.457" stroke="#141B34" stroke-width="1.5" stroke-linecap="round"/>
<path d="M6.45703 11.2471H14.457" stroke="#141B34" stroke-width="1.5" stroke-linecap="round"/>
<path d="M14.8047 21.1028L14.6479 20.3694L14.8047 21.1028ZM13.6013 19.8994L14.3347 20.0562L13.6013 19.8994ZM14.4777 17.3588L13.9474 16.8285L14.4777 17.3588ZM17.3453 20.2264L16.815 19.6961L17.3453 20.2264ZM21.2533 14.7244L21.9028 14.3494V14.3494L21.2533 14.7244ZM20.6532 16.9186L21.1835 17.4489L20.6532 16.9186ZM21.2533 16.2451L21.9028 16.6201L21.2533 16.2451ZM19.9797 13.4508L20.3547 12.8013V12.8013L19.9797 13.4508ZM17.7855 14.0509L18.3159 14.5813L17.7855 14.0509ZM18.459 13.4508L18.084 12.8013V12.8013L18.459 13.4508ZM20.1228 16.3882L16.815 19.6961L17.8756 20.7567L21.1835 17.4489L20.1228 16.3882ZM15.008 17.8891L18.3159 14.5813L17.2552 13.5206L13.9474 16.8285L15.008 17.8891ZM14.6479 20.3694C14.4725 20.4069 14.3323 20.4368 14.2118 20.4592C14.0903 20.4818 14.0106 20.4925 13.9566 20.4959C13.9011 20.4994 13.905 20.4929 13.9396 20.5018C13.9866 20.5139 14.0507 20.5443 14.1053 20.5988L13.0446 21.6595C13.3684 21.9833 13.7728 22.0106 14.0518 21.9929C14.3173 21.976 14.6409 21.9048 14.9616 21.8362L14.6479 20.3694ZM12.8679 19.7425C12.7993 20.0632 12.7281 20.3868 12.7112 20.6523C12.6935 20.9313 12.7208 21.3357 13.0446 21.6595L14.1053 20.5988C14.1598 20.6534 14.1902 20.7175 14.2023 20.7645C14.2112 20.7991 14.2047 20.803 14.2082 20.7475C14.2116 20.6935 14.2223 20.6138 14.2449 20.4923C14.2673 20.3718 14.2972 20.2316 14.3347 20.0562L12.8679 19.7425ZM20.1228 14.5813C20.4903 14.9488 20.5655 15.033 20.6038 15.0994L21.9028 14.3494C21.7409 14.0689 21.4827 13.8198 21.1835 13.5206L20.1228 14.5813ZM21.1835 17.4489C21.4827 17.1497 21.7409 16.9006 21.9028 16.6201L20.6038 15.8701C20.5655 15.9365 20.4903 16.0207 20.1228 16.3882L21.1835 17.4489ZM20.6038 15.0994C20.7415 15.3378 20.7415 15.6317 20.6038 15.8701L21.9028 16.6201C22.3084 15.9176 22.3084 15.0519 21.9028 14.3494L20.6038 15.0994ZM21.1835 13.5206C20.8843 13.2214 20.6352 12.9632 20.3547 12.8013L19.6047 14.1003C19.6711 14.1386 19.7553 14.2138 20.1228 14.5813L21.1835 13.5206ZM18.3159 14.5813C18.6834 14.2138 18.7676 14.1386 18.834 14.1003L18.084 12.8013C17.8035 12.9632 17.5544 13.2214 17.2552 13.5206L18.3159 14.5813ZM20.3547 12.8013C19.6522 12.3957 18.7865 12.3957 18.084 12.8013L18.834 14.1003C19.0724 13.9626 19.3663 13.9626 19.6047 14.1003L20.3547 12.8013ZM16.815 19.6961C16.6195 19.8916 16.3523 20.018 15.9726 20.115C15.7824 20.1635 15.5795 20.2011 15.3533 20.2401C15.1361 20.2777 14.8873 20.3182 14.6479 20.3694L14.9616 21.8362C15.1634 21.7931 15.3702 21.7595 15.6087 21.7182C15.8384 21.6786 16.0916 21.6327 16.3436 21.5684C16.8484 21.4395 17.4103 21.222 17.8756 20.7567L16.815 19.6961ZM14.3347 20.0562C14.3859 19.8168 14.4264 19.568 14.464 19.3508C14.503 19.1246 14.5406 18.9217 14.5891 18.7315C14.6861 18.3518 14.8125 18.0846 15.008 17.8891L13.9474 16.8285C13.4821 17.2938 13.2646 17.8557 13.1358 18.3605C13.0714 18.6125 13.0255 18.8657 12.9859 19.0954C12.9446 19.3339 12.911 19.5407 12.8679 19.7425L14.3347 20.0562Z" fill="#141B34"/>
</svg>
