<svg width="15" height="14" viewBox="0 0 15 14" fill="none" xmlns="http://www.w3.org/2000/svg">
<path d="M8.6055 2.26586C9.04019 1.7949 9.25753 1.55941 9.48849 1.42206C10.0458 1.09062 10.732 1.08032 11.2985 1.39487C11.5334 1.52523 11.7574 1.75409 12.2054 2.21179C12.6535 2.6695 12.8775 2.89835 13.0051 3.13822C13.3131 3.717 13.303 4.41798 12.9785 4.98726C12.8441 5.22319 12.6135 5.44522 12.1525 5.88927L6.66703 11.1727C5.79334 12.0142 5.3565 12.4349 4.81054 12.6482C4.26457 12.8614 3.66437 12.8457 2.46396 12.8144L2.30064 12.8101C1.93519 12.8005 1.75247 12.7958 1.64626 12.6752C1.54004 12.5547 1.55454 12.3685 1.58355 11.9963L1.59929 11.7941C1.68092 10.7464 1.72174 10.2226 1.92633 9.75164C2.13092 9.28074 2.48384 8.89837 3.18967 8.13364L8.6055 2.26586Z" stroke="#141B34" stroke-linejoin="round"/>
<path d="M7.98047 2.33301L12.0638 6.41634" stroke="#141B34" stroke-linejoin="round"/>
<path d="M8.5625 12.833L13.2292 12.833" stroke="#141B34" stroke-linecap="round" stroke-linejoin="round"/>
</svg>
