<svg width="41" height="40" viewBox="0 0 41 40" fill="none" xmlns="http://www.w3.org/2000/svg">
<rect x="0.398438" width="40" height="40" rx="20" fill="white"/>
<circle cx="20.3984" cy="20" r="20" fill="#C3C3C3"/>
<path d="M20.3466 8L20.1875 8.54043V24.221L20.3466 24.3797L27.6252 20.0773L20.3466 8Z" fill="#E2E2E2"/>
<path d="M20.3452 8L13.0664 20.0773L20.3452 24.3797V16.7688V8Z" fill="white"/>
<path d="M20.3436 25.7582L20.2539 25.8676V31.4532L20.3436 31.715L27.6266 21.458L20.3436 25.7582Z" fill="#E2E2E2"/>
<path d="M20.3452 31.715V25.7582L13.0664 21.458L20.3452 31.715Z" fill="white"/>
<path d="M20.3438 24.3795L27.6223 20.077L20.3438 16.7686V24.3795Z" fill="#E2E2E2"/>
<path d="M13.0664 20.077L20.3452 24.3795V16.7686L13.0664 20.077Z" fill="#E2E2E2"/>
</svg>
