<svg width="170" height="54" viewBox="0 0 170 54" fill="none" xmlns="http://www.w3.org/2000/svg">
<path d="M16.528 0.650879L16.1758 1.84731V36.5619L16.528 36.9133L32.6419 27.3883L16.528 0.650879Z" fill="#CFCCCC"/>
<path d="M16.5283 0.650879L0.414062 27.3883L16.5283 36.9133V20.0638V0.650879Z" fill="#BEBEBE"/>
<path d="M16.5266 39.9625L16.3281 40.2045V52.5704L16.5266 53.1499L32.6504 30.4424L16.5266 39.9625Z" fill="#E7E7E4"/>
<path d="M16.5283 53.1499V39.9625L0.414062 30.4424L16.5283 53.1499Z" fill="#BEBEBE"/>
<path d="M16.5273 36.913L32.6412 27.388L16.5273 20.0635V36.913Z" fill="#B5B3B3"/>
<path d="M0.414062 27.388L16.5283 36.913V20.0635L0.414062 27.388Z" fill="#A5A0A0"/>
<path d="M44.0055 37.4004V16.3012H57.2337V19.0416H47.1889V25.4703H56.5435V28.2004H47.1889V34.66H57.3573V37.4004H44.0055ZM68.0453 21.576V24.0486H59.4016V21.576H68.0453ZM61.7197 17.7848H64.8001V32.754C64.8001 33.3516 64.8893 33.8014 65.0679 34.1036C65.2465 34.399 65.4766 34.6016 65.7582 34.7115C66.0466 34.8145 66.3591 34.866 66.6957 34.866C66.9429 34.866 67.1593 34.8488 67.3447 34.8145C67.5302 34.7802 67.6744 34.7527 67.7774 34.7321L68.3338 37.2768C68.1552 37.3454 67.9011 37.4141 67.5714 37.4828C67.2417 37.5584 66.8296 37.5996 66.3351 37.6064C65.5247 37.6202 64.7692 37.4759 64.0686 37.1737C63.368 36.8715 62.8014 36.4045 62.3687 35.7726C61.936 35.1407 61.7197 34.3475 61.7197 33.3928V17.7848ZM74.2929 28.0047V37.4004H71.2125V16.3012H74.2517V24.1516H74.4475C74.8184 23.2999 75.385 22.6234 76.1474 22.122C76.9097 21.6207 77.9056 21.37 79.135 21.37C80.2202 21.37 81.168 21.5932 81.9785 22.0396C82.7958 22.486 83.4277 23.1523 83.8741 24.0383C84.3274 24.9174 84.5541 26.0163 84.5541 27.335V37.4004H81.4737V27.7059C81.4737 26.5452 81.1749 25.6454 80.5774 25.0067C79.9798 24.3611 79.1488 24.0383 78.0842 24.0383C77.3562 24.0383 76.7037 24.1928 76.1267 24.5019C75.5567 24.8109 75.1068 25.2642 74.7771 25.8618C74.4543 26.4524 74.2929 27.1667 74.2929 28.0047ZM94.9046 37.7198C93.3455 37.7198 92.0028 37.3867 90.8764 36.7204C89.7569 36.0474 88.8915 35.103 88.2802 33.8873C87.6758 32.6648 87.3736 31.2327 87.3736 29.5912C87.3736 27.9703 87.6758 26.5417 88.2802 25.3055C88.8915 24.0692 89.7431 23.1042 90.8352 22.4105C91.9341 21.7168 93.2185 21.37 94.6883 21.37C95.5811 21.37 96.4465 21.5176 97.2844 21.813C98.1224 22.1083 98.8744 22.5719 99.5407 23.2038C100.207 23.8357 100.732 24.6564 101.117 25.666C101.502 26.6688 101.694 27.8879 101.694 29.3234V30.4154H89.1147V28.1077H98.6753C98.6753 27.2972 98.5104 26.5795 98.1807 25.9545C97.8511 25.3226 97.3875 24.8247 96.7899 24.4607C96.1993 24.0966 95.5056 23.9146 94.7089 23.9146C93.8435 23.9146 93.088 24.1276 92.4423 24.5534C91.8036 24.9723 91.3091 25.5218 90.9588 26.2018C90.6154 26.8748 90.4437 27.6063 90.4437 28.3962V30.1991C90.4437 31.2568 90.6291 32.1565 91 32.8983C91.3778 33.64 91.9032 34.2067 92.5763 34.5982C93.2494 34.9828 94.0358 35.1751 94.9355 35.1751C95.5193 35.1751 96.0516 35.0927 96.5324 34.9278C97.0131 34.7561 97.4287 34.502 97.779 34.1655C98.1292 33.8289 98.3971 33.4134 98.5825 32.9189L101.498 33.4443C101.265 34.3028 100.846 35.0549 100.241 35.7005C99.6437 36.3393 98.8916 36.8372 97.985 37.1943C97.0853 37.5446 96.0585 37.7198 94.9046 37.7198ZM104.531 37.4004V21.576H107.509V24.0898H107.674C107.962 23.2381 108.47 22.5685 109.198 22.0808C109.933 21.5863 110.764 21.3391 111.692 21.3391C111.884 21.3391 112.11 21.3459 112.371 21.3597C112.639 21.3734 112.849 21.3906 113 21.4112V24.3576C112.876 24.3233 112.657 24.2855 112.341 24.2443C112.025 24.1962 111.709 24.1722 111.393 24.1722C110.665 24.1722 110.016 24.3267 109.446 24.6358C108.882 24.938 108.436 25.3604 108.106 25.903C107.777 26.4387 107.612 27.05 107.612 27.7368V37.4004H104.531ZM121.339 37.7198C119.78 37.7198 118.437 37.3867 117.311 36.7204C116.191 36.0474 115.326 35.103 114.715 33.8873C114.11 32.6648 113.808 31.2327 113.808 29.5912C113.808 27.9703 114.11 26.5417 114.715 25.3055C115.326 24.0692 116.177 23.1042 117.27 22.4105C118.368 21.7168 119.653 21.37 121.123 21.37C122.015 21.37 122.881 21.5176 123.719 21.813C124.557 22.1083 125.309 22.5719 125.975 23.2038C126.641 23.8357 127.167 24.6564 127.551 25.666C127.936 26.6688 128.128 27.8879 128.128 29.3234V30.4154H115.549V28.1077H125.11C125.11 27.2972 124.945 26.5795 124.615 25.9545C124.285 25.3226 123.822 24.8247 123.224 24.4607C122.634 24.0966 121.94 23.9146 121.143 23.9146C120.278 23.9146 119.522 24.1276 118.877 24.5534C118.238 24.9723 117.743 25.5218 117.393 26.2018C117.05 26.8748 116.878 27.6063 116.878 28.3962V30.1991C116.878 31.2568 117.063 32.1565 117.434 32.8983C117.812 33.64 118.338 34.2067 119.011 34.5982C119.684 34.9828 120.47 35.1751 121.37 35.1751C121.954 35.1751 122.486 35.0927 122.967 34.9278C123.447 34.7561 123.863 34.502 124.213 34.1655C124.564 33.8289 124.831 33.4134 125.017 32.9189L127.932 33.4443C127.699 34.3028 127.28 35.0549 126.676 35.7005C126.078 36.3393 125.326 36.8372 124.419 37.1943C123.52 37.5446 122.493 37.7198 121.339 37.7198ZM140.99 30.8378V21.576H144.081V37.4004H141.052V34.66H140.887C140.523 35.5048 139.939 36.2088 139.135 36.7719C138.339 37.3283 137.346 37.6064 136.158 37.6064C135.142 37.6064 134.242 37.3832 133.459 36.9368C132.683 36.4835 132.072 35.8138 131.625 34.9278C131.186 34.0418 130.966 32.9463 130.966 31.6414V21.576H134.046V31.2705C134.046 32.3488 134.345 33.2073 134.942 33.8461C135.54 34.4848 136.316 34.8042 137.271 34.8042C137.848 34.8042 138.421 34.66 138.991 34.3715C139.568 34.083 140.046 33.6469 140.423 33.0631C140.808 32.4793 140.997 31.7375 140.99 30.8378ZM147.639 37.4004V21.576H150.596V24.1516H150.792C151.122 23.2793 151.661 22.5994 152.409 22.1117C153.158 21.6172 154.054 21.37 155.098 21.37C156.156 21.37 157.042 21.6172 157.756 22.1117C158.477 22.6062 159.01 23.2862 159.353 24.1516H159.518C159.896 23.3068 160.497 22.6337 161.321 22.1323C162.145 21.6241 163.127 21.37 164.267 21.37C165.703 21.37 166.874 21.8198 167.78 22.7196C168.694 23.6193 169.151 24.9758 169.151 26.789V37.4004H166.07V27.0775C166.07 26.006 165.778 25.2299 165.195 24.7491C164.611 24.2684 163.914 24.028 163.103 24.028C162.1 24.028 161.321 24.337 160.765 24.9552C160.208 25.5664 159.93 26.3529 159.93 27.3144V37.4004H156.86V26.8817C156.86 26.0232 156.592 25.3329 156.056 24.8109C155.521 24.289 154.824 24.028 153.965 24.028C153.381 24.028 152.842 24.1825 152.348 24.4916C151.86 24.7938 151.465 25.2162 151.163 25.7588C150.867 26.3013 150.72 26.9298 150.72 27.6441V37.4004H147.639Z" fill="#BEBEBE"/>
</svg>
