<svg width="23" height="22" viewBox="0 0 23 22" fill="none" xmlns="http://www.w3.org/2000/svg">
<g clip-path="url(#clip0_1113_5801)">
<path d="M22.6462 11.3289C22.6462 5.4109 17.8486 0.613281 11.9305 0.613281C6.01246 0.613281 1.21484 5.4109 1.21484 11.3289C1.21484 16.3542 4.67472 20.571 9.34203 21.7291V14.6037H7.13246V11.3289H9.34203V9.91791C9.34203 6.27072 10.9927 4.58022 14.5734 4.58022C15.2524 4.58022 16.4238 4.71352 16.903 4.8464V7.81464C16.6501 7.78806 16.2108 7.77478 15.6651 7.77478C13.9082 7.77478 13.2292 8.44043 13.2292 10.1708V11.3289H16.7294L16.128 14.6037H13.2292V21.9662C18.5344 21.3254 22.6462 16.8077 22.6462 11.3289Z" fill="#141B34"/>
</g>
<defs>
<clipPath id="clip0_1113_5801">
<rect width="21.4313" height="21.4313" fill="white" transform="translate(0.929688 0.105469)"/>
</clipPath>
</defs>
</svg>
