<svg width="47" height="46" viewBox="0 0 47 46" fill="none" xmlns="http://www.w3.org/2000/svg">
<rect x="3.89844" y="3" width="40" height="40" rx="20" fill="#F2F4F7"/>
<rect x="3.89844" y="3" width="40" height="40" rx="20" stroke="#F9FAFB" stroke-width="6"/>
<g clip-path="url(#clip0_975_1392)">
<path d="M27.231 26.3332L23.8977 22.9999M23.8977 22.9999L20.5643 26.3332M23.8977 22.9999V30.4999M30.8893 28.3249C31.7021 27.8818 32.3442 27.1806 32.7142 26.3321C33.0843 25.4835 33.1612 24.5359 32.9328 23.6388C32.7045 22.7417 32.1839 21.9462 31.4532 21.3778C30.7225 20.8094 29.8234 20.5005 28.8977 20.4999H27.8477C27.5954 19.5243 27.1253 18.6185 26.4726 17.8507C25.82 17.0829 25.0017 16.4731 24.0794 16.0671C23.1571 15.661 22.1548 15.4694 21.1478 15.5065C20.1407 15.5436 19.1552 15.8085 18.2653 16.2813C17.3754 16.7541 16.6043 17.4225 16.0099 18.2362C15.4154 19.05 15.0132 19.9879 14.8335 20.9794C14.6537 21.9709 14.7011 22.9903 14.972 23.961C15.2429 24.9316 15.7304 25.8281 16.3977 26.5832" stroke="#475467" stroke-width="1.66667" stroke-linecap="round" stroke-linejoin="round"/>
</g>
<defs>
<clipPath id="clip0_975_1392">
<rect width="20" height="20" fill="white" transform="translate(13.8984 13)"/>
</clipPath>
</defs>
</svg>
