<svg width="25" height="24" viewBox="0 0 25 24" fill="none" xmlns="http://www.w3.org/2000/svg">
<path d="M12.3985 0C5.77193 0 0.398438 5.50847 0.398438 12.3038C0.398438 17.74 3.83683 22.3519 8.60484 23.9789C9.20456 24.0927 9.42474 23.7119 9.42474 23.387C9.42474 23.0936 9.41362 22.1244 9.40845 21.0963C6.07001 21.8405 5.36556 19.6446 5.36556 19.6446C4.81968 18.2224 4.03316 17.8443 4.03316 17.8443C2.9444 17.0806 4.11523 17.0963 4.11523 17.0963C5.32025 17.1831 5.95475 18.3642 5.95475 18.3642C7.02504 20.2452 8.76202 19.7014 9.4468 19.387C9.5545 18.5918 9.8655 18.049 10.2087 17.7418C7.54329 17.4307 4.74139 16.3757 4.74139 11.6612C4.74139 10.3179 5.21016 9.22032 5.9778 8.35868C5.85321 8.04878 5.44246 6.79737 6.09405 5.10261C6.09405 5.10261 7.10174 4.77193 9.39493 6.3638C10.3522 6.09119 11.3787 5.95447 12.3985 5.94979C13.4184 5.95447 14.4457 6.09119 15.4047 6.3638C17.6951 4.77193 18.7014 5.10261 18.7014 5.10261C19.3546 6.79737 18.9437 8.04878 18.8191 8.35868C19.5885 9.22032 20.0541 10.3179 20.0541 11.6612C20.0541 16.3869 17.2468 17.4274 14.5747 17.732C15.0051 18.1138 15.3886 18.8626 15.3886 20.0105C15.3886 21.6568 15.3747 22.9817 15.3747 23.387C15.3747 23.7144 15.5907 24.098 16.199 23.9772C20.9644 22.3485 24.3984 17.7381 24.3984 12.3038C24.3984 5.50847 19.0257 0 12.3985 0Z" fill="black"/>
</svg>
