<svg width="25" height="25" viewBox="0 0 25 25" fill="none" xmlns="http://www.w3.org/2000/svg">
<path d="M3.0686 12.1406C3.0686 7.66228 3.0686 5.42311 4.45985 4.03187C5.85109 2.64062 8.09026 2.64062 12.5686 2.64062C17.0469 2.64062 19.2861 2.64062 20.6774 4.03187C22.0686 5.42311 22.0686 7.66228 22.0686 12.1406C22.0686 16.619 22.0686 18.8581 20.6774 20.2494C19.2861 21.6406 17.0469 21.6406 12.5686 21.6406C8.09026 21.6406 5.85109 21.6406 4.45985 20.2494C3.0686 18.8581 3.0686 16.619 3.0686 12.1406Z" stroke="#141B34" stroke-width="1.5" stroke-linecap="round" stroke-linejoin="round"/>
<path d="M22.0686 13.6406H17.1429C16.3008 13.6406 15.6392 14.3442 15.2681 15.0879C14.8649 15.8957 14.0575 16.6406 12.5686 16.6406C11.0797 16.6406 10.2723 15.8957 9.86915 15.0879C9.49802 14.3442 8.83637 13.6406 7.99426 13.6406H3.0686" stroke="#141B34" stroke-width="1.5" stroke-linejoin="round"/>
</svg>
