<svg width="19" height="20" viewBox="0 0 19 20" fill="none" xmlns="http://www.w3.org/2000/svg">
<path d="M1.46875 9.95978C1.46875 5.98469 1.46875 3.99715 2.70365 2.76225C3.93855 1.52734 5.9261 1.52734 9.90118 1.52734C13.8763 1.52734 15.8638 1.52734 17.0987 2.76225C18.3336 3.99715 18.3336 5.98469 18.3336 9.95978C18.3336 13.9349 18.3336 15.9224 17.0987 17.1573C15.8638 18.3922 13.8763 18.3922 9.90118 18.3922C5.9261 18.3922 3.93855 18.3922 2.70365 17.1573C1.46875 15.9224 1.46875 13.9349 1.46875 9.95978Z" stroke="#FF7B1B" stroke-width="1.33144" stroke-linecap="round" stroke-linejoin="round"/>
<path d="M18.3336 11.291H13.9615C13.214 11.291 12.6267 11.9155 12.2973 12.5756C11.9394 13.2927 11.2227 13.9539 9.90118 13.9539C8.57962 13.9539 7.86296 13.2927 7.50508 12.5756C7.17566 11.9155 6.58837 11.291 5.84089 11.291H1.46875" stroke="#FF7B1B" stroke-width="1.33144" stroke-linejoin="round"/>
</svg>
