<svg width="23" height="22" viewBox="0 0 23 22" fill="none" xmlns="http://www.w3.org/2000/svg">
<path d="M11.5018 0.105469C8.5916 0.105469 8.22637 0.118194 7.08335 0.17021C5.94257 0.22245 5.16389 0.403055 4.48255 0.668047C3.77776 0.941746 3.17991 1.30787 2.58429 1.90371C1.98823 2.49933 1.6221 3.09718 1.34751 3.80174C1.08185 4.48331 0.90102 5.26222 0.849674 6.40255C0.798551 7.54557 0.785156 7.91102 0.785156 10.8212C0.785156 13.7315 0.798105 14.0956 0.849898 15.2386C0.90236 16.3794 1.08297 17.1581 1.34773 17.8394C1.62166 18.5442 1.98778 19.1421 2.58362 19.7377C3.17902 20.3337 3.77687 20.7008 4.48121 20.9745C5.163 21.2394 5.9419 21.4201 7.08246 21.4723C8.22548 21.5243 8.59048 21.537 11.5005 21.537C14.4109 21.537 14.775 21.5243 15.9181 21.4723C17.0588 21.4201 17.8384 21.2394 18.5202 20.9745C19.2248 20.7008 19.8217 20.3337 20.4171 19.7377C21.0132 19.1421 21.3793 18.5442 21.6539 17.8396C21.9173 17.1581 22.0982 16.3792 22.1517 15.2388C22.2031 14.0958 22.2165 13.7315 22.2165 10.8212C22.2165 7.91102 22.2031 7.54579 22.1517 6.40278C22.0982 5.26199 21.9173 4.48331 21.6539 3.80197C21.3793 3.09718 21.0132 2.49933 20.4171 1.90371C19.8211 1.30765 19.225 0.941523 18.5195 0.668047C17.8364 0.403055 17.0573 0.22245 15.9165 0.17021C14.7735 0.118194 14.4096 0.105469 11.4985 0.105469H11.5018ZM10.5405 2.03654C10.8258 2.0361 11.1442 2.03654 11.5018 2.03654C14.3629 2.03654 14.702 2.04681 15.8319 2.09816C16.8767 2.14593 17.4437 2.32051 17.8215 2.46718C18.3215 2.66141 18.678 2.89358 19.0529 3.26863C19.4279 3.64369 19.6601 4.00088 19.8548 4.50095C20.0014 4.87823 20.1762 5.44528 20.2238 6.49006C20.2751 7.61969 20.2863 7.95902 20.2863 10.8188C20.2863 13.6786 20.2751 14.0179 20.2238 15.1475C20.176 16.1923 20.0014 16.7594 19.8548 17.1366C19.6605 17.6367 19.4279 17.9928 19.0529 18.3676C18.6778 18.7427 18.3217 18.9748 17.8215 19.1691C17.4442 19.3164 16.8767 19.4905 15.8319 19.5383C14.7023 19.5897 14.3629 19.6008 11.5018 19.6008C8.64049 19.6008 8.30138 19.5897 7.17176 19.5383C6.12697 19.4901 5.55993 19.3155 5.18197 19.1688C4.6819 18.9746 4.32471 18.7424 3.94966 18.3674C3.57461 17.9923 3.34243 17.636 3.14776 17.1357C3.00109 16.7585 2.82629 16.1914 2.77874 15.1466C2.72739 14.017 2.71712 13.6777 2.71712 10.8161C2.71712 7.95455 2.72739 7.61701 2.77874 6.48739C2.82651 5.4426 3.00109 4.87555 3.14776 4.49782C3.34199 3.99775 3.57461 3.64056 3.94966 3.26551C4.32471 2.89046 4.6819 2.65828 5.18197 2.46361C5.5597 2.31627 6.12697 2.14214 7.17176 2.09414C8.16029 2.04949 8.54338 2.0361 10.5405 2.03386V2.03654ZM17.2218 3.81581C16.5119 3.81581 15.9359 4.39111 15.9359 5.10125C15.9359 5.81118 16.5119 6.38715 17.2218 6.38715C17.9317 6.38715 18.5077 5.81118 18.5077 5.10125C18.5077 4.39133 17.9317 3.81536 17.2218 3.81536V3.81581ZM11.5018 5.31825C8.46279 5.31825 5.99883 7.78221 5.99883 10.8212C5.99883 13.8603 8.46279 16.3231 11.5018 16.3231C14.5409 16.3231 17.0039 13.8603 17.0039 10.8212C17.0039 7.78221 14.5409 5.31825 11.5018 5.31825ZM11.5018 7.24932C13.4744 7.24932 15.0738 8.84843 15.0738 10.8212C15.0738 12.7938 13.4744 14.3932 11.5018 14.3932C9.52901 14.3932 7.9299 12.7938 7.9299 10.8212C7.9299 8.84843 9.52901 7.24932 11.5018 7.24932Z" fill="#141B34"/>
</svg>
