<svg width="22" height="22" viewBox="0 0 22 22" fill="none" xmlns="http://www.w3.org/2000/svg">
<path d="M20.2677 0.329102C21.0809 0.329102 21.7985 1.04667 21.7985 1.90775V20.2296C21.7985 21.0907 21.0809 21.7604 20.2677 21.7604H1.85016C1.03692 21.7604 0.367188 21.0907 0.367188 20.2296V1.90775C0.367188 1.04667 1.03692 0.329102 1.85016 0.329102H20.2677ZM6.82529 18.6988V8.50936H3.66799V18.6988H6.82529ZM5.24664 7.07423C6.25124 7.07423 7.06448 6.26099 7.06448 5.25639C7.06448 4.2518 6.25124 3.39072 5.24664 3.39072C4.19421 3.39072 3.38097 4.2518 3.38097 5.25639C3.38097 6.26099 4.19421 7.07423 5.24664 7.07423ZM18.7369 18.6988V13.1018C18.7369 10.375 18.115 8.22234 14.9099 8.22234C13.3791 8.22234 12.3266 9.08342 11.8961 9.89666H11.8483V8.50936H8.83448V18.6988H11.9918V13.6758C11.9918 12.3364 12.231 11.0448 13.9053 11.0448C15.5318 11.0448 15.5318 12.5756 15.5318 13.7237V18.6988H18.7369Z" fill="#141B34"/>
</svg>
