<svg width="20" height="20" viewBox="0 0 20 20" fill="none" xmlns="http://www.w3.org/2000/svg">
<ellipse cx="13.5117" cy="8.71275" rx="5.76956" ry="1.77525" stroke="#141B34" stroke-width="1.33144"/>
<path d="M19.2813 12.707C19.2813 13.6875 16.6982 14.4823 13.5117 14.4823C10.3253 14.4823 7.74219 13.6875 7.74219 12.707" stroke="#141B34" stroke-width="1.33144"/>
<path d="M19.2813 8.71289V16.524C19.2813 17.6025 16.6982 18.4768 13.5117 18.4768C10.3253 18.4768 7.74219 17.6025 7.74219 16.524V8.71289" stroke="#141B34" stroke-width="1.33144"/>
<ellipse cx="7.2969" cy="2.49986" rx="5.76956" ry="1.77525" stroke="#141B34" stroke-width="1.33144"/>
<path d="M5.07784 8.71275C3.39862 8.5084 1.85569 7.98005 1.52734 6.9375M5.07784 13.1509C3.39862 12.9465 1.85569 12.4182 1.52734 11.3756" stroke="#141B34" stroke-width="1.33144" stroke-linecap="round"/>
<path d="M5.07784 17.5896C3.39862 17.3853 1.85569 16.8569 1.52734 15.8144L1.52734 2.5" stroke="#141B34" stroke-width="1.33144" stroke-linecap="round"/>
<path d="M13.0664 4.27525V2.5" stroke="#141B34" stroke-width="1.33144" stroke-linecap="round"/>
</svg>
