<svg width="41" height="40" viewBox="0 0 41 40" fill="none" xmlns="http://www.w3.org/2000/svg">
<rect x="0.398438" width="40" height="40" rx="20" fill="white"/>
<circle cx="20.3984" cy="20" r="20" fill="#C3C3C3"/>
<path d="M26.398 15.9835C25.9715 15.7382 25.4232 15.7382 24.9359 15.9835L21.5242 18.0072L19.2091 19.2951L15.8584 21.3188C15.4319 21.5641 14.8836 21.5641 14.3963 21.3188L11.7766 19.7244C11.3501 19.4791 11.0455 18.9885 11.0455 18.4365V15.3703C11.0455 14.8797 11.2892 14.3891 11.7766 14.0824L14.3963 12.5493C14.8227 12.304 15.371 12.304 15.8584 12.5493L18.4781 14.1437C18.9045 14.3891 19.2091 14.8797 19.2091 15.4316V17.4553L21.5242 16.1062V14.0211C21.5242 13.5305 21.2805 13.0399 20.7931 12.7333L15.9193 9.85097C15.4929 9.60567 14.9446 9.60567 14.4572 9.85097L9.46154 12.7946C8.97416 13.0399 8.73047 13.5305 8.73047 14.0211V19.7857C8.73047 20.2763 8.97416 20.7669 9.46154 21.0735L14.3963 23.9558C14.8227 24.2011 15.371 24.2011 15.8584 23.9558L19.2091 21.9934L21.5242 20.6442L24.8749 18.6818C25.3014 18.4365 25.8497 18.4365 26.3371 18.6818L28.9568 20.215C29.3832 20.4603 29.6878 20.9509 29.6878 21.5028V24.5691C29.6878 25.0597 29.4441 25.5503 28.9568 25.8569L26.398 27.39C25.9715 27.6353 25.4232 27.6353 24.9359 27.39L22.3162 25.8569C21.8897 25.6116 21.5851 25.121 21.5851 24.5691V22.6067L19.2701 23.9558V25.9796C19.2701 26.4702 19.5138 26.9608 20.0011 27.2674L24.9359 30.1497C25.3623 30.395 25.9106 30.395 26.398 30.1497L31.3327 27.2674C31.7592 27.0221 32.0638 26.5315 32.0638 25.9796V20.1536C32.0638 19.663 31.8201 19.1724 31.3327 18.8658L26.398 15.9835Z" fill="white"/>
</svg>
