<svg width="41" height="40" viewBox="0 0 41 40" fill="none" xmlns="http://www.w3.org/2000/svg">
<rect x="0.398438" width="40" height="40" rx="20" fill="white"/>
<circle cx="20.3984" cy="20" r="20" fill="#C3C3C3"/>
<path d="M26.4019 15.9825C25.9755 15.7372 25.4272 15.7372 24.9398 15.9825L21.5281 18.0063L19.2131 19.2941L15.8623 21.3178C15.4359 21.5631 14.8876 21.5631 14.4002 21.3178L11.7805 19.7234C11.354 19.4781 11.0494 18.9875 11.0494 18.4356V15.3693C11.0494 14.8787 11.2931 14.3881 11.7805 14.0814L14.4002 12.5483C14.8266 12.303 15.3749 12.303 15.8623 12.5483L18.482 14.1428C18.9084 14.3881 19.2131 14.8787 19.2131 15.4306V17.4543L21.5281 16.1052V14.0201C21.5281 13.5295 21.2844 13.0389 20.797 12.7323L15.9232 9.84999C15.4968 9.60469 14.9485 9.60469 14.4611 9.84999L9.46545 12.7936C8.97807 13.0389 8.73438 13.5295 8.73438 14.0201V19.7847C8.73438 20.2753 8.97807 20.7659 9.46545 21.0725L14.4002 23.9548C14.8266 24.2001 15.3749 24.2001 15.8623 23.9548L19.2131 21.9924L21.5281 20.6433L24.8788 18.6809C25.3053 18.4356 25.8536 18.4356 26.341 18.6809L28.9607 20.214C29.3871 20.4593 29.6917 20.9499 29.6917 21.5018V24.5681C29.6917 25.0587 29.448 25.5493 28.9607 25.8559L26.4019 27.3891C25.9755 27.6344 25.4272 27.6344 24.9398 27.3891L22.3201 25.8559C21.8936 25.6106 21.589 25.12 21.589 24.5681V22.6057L19.274 23.9548V25.9786C19.274 26.4692 19.5177 26.9598 20.005 27.2664L24.9398 30.1487C25.3662 30.394 25.9145 30.394 26.4019 30.1487L31.3366 27.2664C31.7631 27.0211 32.0677 26.5305 32.0677 25.9786V20.1527C32.0677 19.6621 31.824 19.1715 31.3366 18.8648L26.4019 15.9825Z" fill="white"/>
</svg>
