<svg width="23" height="22" viewBox="0 0 23 22" fill="none" xmlns="http://www.w3.org/2000/svg">
<path d="M4.53906 1.24707V7.24707M1.53906 4.24707H7.53906" stroke="#141B34" stroke-width="1.5" stroke-linecap="round" stroke-linejoin="round"/>
<path d="M19.5391 17.2471L19.5391 6.24707M6.53906 19.2471H17.5391M17.5391 4.24707H11.5391M4.53906 11.2471V17.2471" stroke="#141B34" stroke-width="1.5" stroke-linecap="round" stroke-linejoin="round"/>
<path d="M17.5391 4.24707C17.5391 3.30426 17.5391 2.83286 17.832 2.53996C18.1248 2.24707 18.5963 2.24707 19.5391 2.24707C20.4819 2.24707 20.9533 2.24707 21.2462 2.53996C21.5391 2.83286 21.5391 3.30426 21.5391 4.24707C21.5391 5.18988 21.5391 5.66128 21.2462 5.95418C20.9533 6.24707 20.4819 6.24707 19.5391 6.24707C18.5963 6.24707 18.1248 6.24707 17.832 5.95418C17.5391 5.66128 17.5391 5.18988 17.5391 4.24707Z" stroke="#141B34" stroke-width="1.5"/>
<path d="M17.5391 19.2471C17.5391 18.3043 17.5391 17.8329 17.832 17.54C18.1248 17.2471 18.5963 17.2471 19.5391 17.2471C20.4819 17.2471 20.9533 17.2471 21.2462 17.54C21.5391 17.8329 21.5391 18.3043 21.5391 19.2471C21.5391 20.1899 21.5391 20.6613 21.2462 20.9542C20.9533 21.2471 20.4819 21.2471 19.5391 21.2471C18.5963 21.2471 18.1248 21.2471 17.832 20.9542C17.5391 20.6613 17.5391 20.1899 17.5391 19.2471Z" stroke="#141B34" stroke-width="1.5"/>
<path d="M2.53906 19.2471C2.53906 18.3043 2.53906 17.8329 2.83196 17.54C3.12485 17.2471 3.59625 17.2471 4.53906 17.2471C5.48187 17.2471 5.95328 17.2471 6.24617 17.54C6.53906 17.8329 6.53906 18.3043 6.53906 19.2471C6.53906 20.1899 6.53906 20.6613 6.24617 20.9542C5.95328 21.2471 5.48187 21.2471 4.53906 21.2471C3.59625 21.2471 3.12485 21.2471 2.83196 20.9542C2.53906 20.6613 2.53906 20.1899 2.53906 19.2471Z" stroke="#141B34" stroke-width="1.5"/>
</svg>
