<svg width="22" height="14" viewBox="0 0 22 14" fill="none" xmlns="http://www.w3.org/2000/svg">
<path d="M0.46967 12.4697C0.176777 12.7626 0.176777 13.2374 0.46967 13.5303C0.762563 13.8232 1.23744 13.8232 1.53033 13.5303L0.46967 12.4697ZM8.39782 8.11826L7.9293 8.70391H7.9293L8.39782 8.11826ZM10.5173 9.81383L10.0488 10.3995L10.5173 9.81383ZM13.2615 9.58082L12.7009 9.08255L13.2615 9.58082ZM20.5606 2.49827C20.8357 2.18869 20.8079 1.71463 20.4983 1.43944C20.1887 1.16425 19.7146 1.19214 19.4394 1.50173L20.5606 2.49827ZM11.9679 10.6225L12.0314 11.3698H12.0314L11.9679 10.6225ZM7.01892 7.34153L7.06039 8.09038H7.06039L7.01892 7.34153ZM17 0.25C16.5858 0.25 16.25 0.585786 16.25 1C16.25 1.41421 16.5858 1.75 17 1.75V0.25ZM20.25 5.00001C20.25 5.41422 20.5858 5.75001 21 5.75001C21.4142 5.75001 21.75 5.41422 21.75 5.00001H20.25ZM20.7071 1.29289L21.2374 0.762563V0.762563L20.7071 1.29289ZM4 2.25C3.58579 2.25 3.25 2.58579 3.25 3C3.25 3.41421 3.58579 3.75 4 3.75V2.25ZM10 3.75C10.4142 3.75 10.75 3.41421 10.75 3C10.75 2.58579 10.4142 2.25 10 2.25V3.75ZM1.53033 13.5303L6.26455 8.79611L5.20389 7.73545L0.46967 12.4697L1.53033 13.5303ZM7.9293 8.70391L10.0488 10.3995L10.9858 9.22818L8.86634 7.53261L7.9293 8.70391ZM13.8221 10.0791L20.5606 2.49827L19.4394 1.50173L12.7009 9.08255L13.8221 10.0791ZM10.0488 10.3995C10.3837 10.6674 10.6914 10.9155 10.9687 11.0832C11.2644 11.262 11.6129 11.4053 12.0314 11.3698L11.9045 9.87515C11.9039 9.8752 11.9038 9.87518 11.9042 9.87518C11.9045 9.87519 11.9047 9.87521 11.9045 9.87519C11.9045 9.87519 11.9002 9.87475 11.8905 9.87178C11.8689 9.86521 11.8239 9.84745 11.7448 9.79962C11.5717 9.69491 11.3529 9.52185 10.9858 9.22818L10.0488 10.3995ZM12.7009 9.08255C12.3886 9.43391 12.2022 9.64137 12.0491 9.77378C11.9792 9.83427 11.9379 9.85935 11.9177 9.86947C11.9086 9.87404 11.9045 9.87518 11.9045 9.87519C11.9043 9.87525 11.9045 9.87519 11.9048 9.87513C11.9051 9.87507 11.9051 9.8751 11.9045 9.87515L12.0314 11.3698C12.4499 11.3342 12.7692 11.1343 13.0306 10.9081C13.2756 10.6961 13.5371 10.3996 13.8221 10.0791L12.7009 9.08255ZM6.26455 8.79611C6.57967 8.48099 6.76647 8.29622 6.91783 8.17927C6.98676 8.12601 7.02696 8.10423 7.04666 8.09547C7.05561 8.09149 7.05971 8.09048 7.05999 8.09041C7.06006 8.0904 7.05973 8.09042 7.06039 8.09038L6.97744 6.59268C6.57687 6.61486 6.26265 6.78991 6.00068 6.99233C5.7556 7.1817 5.49084 7.4485 5.20389 7.73545L6.26455 8.79611ZM8.86634 7.53261C8.54946 7.2791 8.25685 7.04317 7.99236 6.88202C7.70964 6.70976 7.37801 6.57049 6.97744 6.59268L7.06039 8.09038C7.06105 8.09034 7.06072 8.09036 7.06079 8.09037C7.06108 8.09041 7.06527 8.09095 7.0746 8.09392C7.09514 8.10045 7.13751 8.11766 7.2119 8.16299C7.37524 8.26251 7.5813 8.42551 7.9293 8.70391L8.86634 7.53261ZM17 1.75H19V0.25H17V1.75ZM20.25 3V5.00001H21.75V3H20.25ZM19 1.75C19.4926 1.75 19.7866 1.75159 19.9973 1.77992C20.0939 1.79291 20.1423 1.8082 20.164 1.81716C20.1691 1.81923 20.1724 1.82085 20.1743 1.82186C20.1762 1.82286 20.1771 1.82341 20.1772 1.82347C20.1772 1.82351 20.177 1.82335 20.1767 1.82307C20.1763 1.82279 20.1763 1.82277 20.1768 1.82322L21.2374 0.762563C20.9284 0.45354 20.5527 0.341093 20.1972 0.2933C19.8633 0.248407 19.4502 0.25 19 0.25V1.75ZM21.75 3C21.75 2.5498 21.7516 2.1367 21.7067 1.80279C21.6589 1.44731 21.5465 1.07159 21.2374 0.762563L20.1768 1.82322C20.1772 1.82368 20.1772 1.8237 20.1769 1.82335C20.1766 1.823 20.1765 1.82277 20.1765 1.82283C20.1766 1.82292 20.1771 1.82376 20.1781 1.82567C20.1791 1.8276 20.1808 1.83092 20.1828 1.83596C20.1918 1.85774 20.2071 1.90611 20.2201 2.00266C20.2484 2.21339 20.25 2.50739 20.25 3H21.75ZM4 3.75H10V2.25H4V3.75Z" fill="#00BB22"/>
</svg>
