<svg width="21" height="20" viewBox="0 0 21 20" fill="none" xmlns="http://www.w3.org/2000/svg">
<path d="M9.47523 1.24707C5.82557 1.25364 3.91442 1.34324 2.69306 2.56461C1.375 3.88266 1.375 6.00405 1.375 10.2468C1.375 14.4896 1.375 16.611 2.69306 17.929C4.01111 19.2471 6.1325 19.2471 10.3753 19.2471C14.618 19.2471 16.7394 19.2471 18.0575 17.929C19.2788 16.7077 19.3684 14.7965 19.375 11.1468" stroke="#141B34" stroke-width="1.5" stroke-linecap="round" stroke-linejoin="round"/>
<path d="M19.3745 4.27236L18.375 4.26983C14.6384 4.26038 12.7701 4.25566 11.4567 5.19973C11.0202 5.51346 10.6372 5.89552 10.3224 6.33119C9.375 7.64222 9.375 9.5105 9.375 13.2471M19.3745 4.27236C19.3812 4.10973 19.3231 3.94613 19.2001 3.8004C18.4349 2.89393 16.4461 1.24707 16.4461 1.24707M19.3745 4.27236C19.3684 4.41819 19.3102 4.56323 19.1999 4.69388C18.4346 5.60017 16.4461 7.24707 16.4461 7.24707" stroke="#141B34" stroke-width="1.5" stroke-linecap="round" stroke-linejoin="round"/>
</svg>
