<svg width="188" height="43" viewBox="0 0 188 43" fill="none" xmlns="http://www.w3.org/2000/svg">
<path d="M38.3763 23.9056H46.8473C48.0384 23.9056 49.0035 24.8813 49.0035 26.0728C49.0035 27.2642 48.0384 28.2399 46.8473 28.2399H36.6307C36.4664 28.2399 36.3124 28.3015 36.1995 28.4043L33.1191 31.0644C32.6468 31.4752 32.9343 32.2456 33.5503 32.2456H46.3339C46.3339 32.2456 46.3442 32.2455 46.3442 32.2353C46.3442 32.225 46.3544 32.225 46.3544 32.225C46.5187 32.2353 46.6727 32.2456 46.8473 32.2456C50.2357 32.2456 52.9875 29.4827 52.9875 26.0728C52.9875 22.8375 50.5129 20.1773 47.3504 19.9205C47.3504 19.9205 47.3401 19.9205 47.3401 19.9103C47.3401 19.9 47.3401 19.9 47.3299 19.9H38.212C37.0209 19.9 36.0557 18.9243 36.0557 17.7328C36.0557 16.5312 37.0209 15.5657 38.212 15.5657H48.408C48.5723 15.5657 48.7366 15.5041 48.8598 15.3911L51.7245 12.7309C52.1763 12.3201 51.8786 11.5601 51.2727 11.5601H38.3865C38.3352 11.5601 38.2736 11.5601 38.2222 11.5601C34.8338 11.5601 32.082 14.3229 32.082 17.7328C32.082 21.1428 34.8338 23.9056 38.2222 23.9056C38.2736 23.9056 38.3249 23.9056 38.3763 23.9056Z" fill="#BEBEBE"/>
<path d="M87.6948 11.5518C87.3251 11.5518 87.0273 11.8496 87.0273 12.2296V31.5799C87.0273 31.9497 87.3251 32.2578 87.6948 32.2578H103.199C103.384 32.2578 103.559 32.1756 103.692 32.0421L105.633 29.9571C106.033 29.5257 105.735 28.8273 105.14 28.8273H91.6068C91.2372 28.8273 90.9394 28.5295 90.9394 28.1494V12.2296C90.9394 11.8599 90.6416 11.5518 90.272 11.5518H87.6948Z" fill="#BEBEBE"/>
<path fill-rule="evenodd" clip-rule="evenodd" d="M62.8688 11.5518C62.8688 11.562 62.8585 11.562 62.8688 11.5518C60.8871 11.6442 59.2955 13.2362 59.2031 15.2185V28.2316C59.2031 28.283 59.2031 28.3446 59.2031 28.396C59.2031 30.4604 60.8255 32.1448 62.8688 32.227H76.9358C78.9689 32.1345 80.6014 30.4501 80.6014 28.396C80.6014 28.3446 80.6014 28.283 80.6014 28.2316V15.2287C80.5193 13.2464 78.9278 11.6442 76.9461 11.562H62.8688V11.5518ZM65.4871 15.2287C64.2447 15.2801 63.2487 16.2866 63.1973 17.5397V25.7255C63.1973 25.7563 63.1973 25.7974 63.1973 25.8282C63.1973 27.1224 64.2139 28.1905 65.4871 28.2419H74.3072C75.5804 28.1905 76.597 27.1224 76.597 25.8282C76.597 25.7974 76.597 25.7563 76.597 25.7255V17.5397C76.5456 16.2866 75.5496 15.2903 74.3072 15.2287H65.4871Z" fill="#BEBEBE"/>
<path fill-rule="evenodd" clip-rule="evenodd" d="M128.175 31.5799C128.175 31.9496 128.473 32.2578 128.843 32.2578H131.471C131.841 32.2578 132.139 31.9599 132.139 31.5799V15.5676C132.139 15.5163 132.139 15.4546 132.139 15.4033C132.139 13.3389 130.527 11.6544 128.514 11.5723H115.012C114.96 11.5723 114.899 11.5723 114.847 11.5723C112.753 11.5723 111.059 13.2875 111.059 15.4136C111.059 15.4649 111.059 15.5265 111.059 15.5779V31.5901C111.059 31.9599 111.356 32.268 111.726 32.268H114.355C114.724 32.268 115.022 31.9702 115.022 31.5901V24.9244C115.022 24.5546 115.32 24.2465 115.689 24.2465H127.539C127.908 24.2465 128.206 24.5443 128.206 24.9244V31.5799H128.175ZM114.991 20.5593V17.2315C114.991 15.9374 116.028 14.8897 117.301 14.8897H125.865C127.138 14.8897 128.175 15.9374 128.175 17.2315V20.5593C128.175 20.929 127.877 21.2371 127.508 21.2371H115.659C115.289 21.2371 114.991 20.9393 114.991 20.5593Z" fill="#BEBEBE"/>
<path fill-rule="evenodd" clip-rule="evenodd" d="M183.668 32.2558C183.298 32.2558 183.001 31.958 183.001 31.5779V24.9122C183.001 24.5424 182.703 24.2343 182.333 24.2343H170.351C169.981 24.2343 169.683 24.5321 169.683 24.9122V31.5779C169.683 31.9477 169.385 32.2558 169.016 32.2558H166.367C165.997 32.2558 165.699 31.958 165.699 31.5779V15.5657C165.699 15.5143 165.699 15.4527 165.699 15.4014C165.699 13.2856 167.414 11.5601 169.529 11.5601C169.58 11.5601 169.642 11.5601 169.693 11.5601H183.35C185.383 11.6525 187.015 13.3369 187.015 15.3911C187.015 15.4424 187.015 15.5041 187.015 15.5554V31.5677C187.015 31.9374 186.718 32.2456 186.348 32.2456H183.668V32.2558ZM169.673 17.2296V20.5573C169.673 20.9271 169.971 21.2352 170.34 21.2352H182.323C182.693 21.2352 182.99 20.9373 182.99 20.5573V17.2296C182.99 15.9354 181.943 14.8878 180.66 14.8878H172.004C170.72 14.8878 169.673 15.9354 169.673 17.2296Z" fill="#BEBEBE"/>
<path d="M142.026 11.5518C142.221 11.5518 142.406 11.6339 142.529 11.788L154.317 25.8488C154.717 26.3212 155.487 26.0337 155.487 25.4071V12.2296C155.487 11.8599 155.785 11.5518 156.155 11.5518H158.783C159.153 11.5518 159.451 11.8496 159.451 12.2296V31.5799C159.451 31.9497 159.153 32.2578 158.783 32.2578H155.518C155.508 32.2578 155.497 32.2475 155.497 32.2372C155.497 32.227 155.498 32.227 155.487 32.2167L143.494 18.2586C143.094 17.7862 142.324 18.084 142.324 18.7003V31.5902C142.324 31.9599 142.026 32.2681 141.656 32.2681H139.007C138.638 32.2681 138.34 31.9702 138.34 31.5902V12.2296C138.34 11.8599 138.638 11.5518 139.007 11.5518H142.026Z" fill="#BEBEBE"/>
<path d="M-29.0495 32.9686C-28.7209 32.64 -28.2794 32.4551 -27.8173 32.4551H14.9485C15.7289 32.4551 16.119 33.4 15.5646 33.9444L7.11409 42.387C6.78551 42.7157 6.34399 42.9005 5.88194 42.9005H-36.8736C-37.654 42.9005 -38.0442 41.9556 -37.4897 41.4113L-29.0495 32.9686Z" fill="#BEBEBE"/>
<path d="M-29.0495 1.41344C-28.7209 1.08478 -28.2794 0.899902 -27.8173 0.899902H14.9485C15.7289 0.899902 16.119 1.84482 15.5646 2.38918L7.11409 10.8318C6.78551 11.1605 6.34399 11.3454 5.88194 11.3454H-36.8736C-37.654 11.3454 -38.0442 10.4004 -37.4897 9.85608L-29.0495 1.41344Z" fill="#BEBEBE"/>
<path d="M7.11408 17.0878C6.78551 16.7591 6.34399 16.5742 5.88194 16.5742H-36.8736C-37.654 16.5742 -38.0442 17.5191 -37.4897 18.0635L-29.0392 26.5061C-28.7106 26.8348 -28.2691 27.0197 -27.8071 27.0197H14.9588C15.7391 27.0197 16.1293 26.0748 15.5748 25.5304L7.11408 17.0878Z" fill="#BEBEBE"/>
</svg>
