<svg width="41" height="40" viewBox="0 0 41 40" fill="none" xmlns="http://www.w3.org/2000/svg">
<rect x="0.398438" width="40" height="40" rx="20" fill="white"/>
<circle cx="20.3984" cy="20" r="20" fill="#C3C3C3"/>
<path d="M12.7981 24.738C12.9367 24.5994 13.1272 24.5186 13.3294 24.5186H31.6585C31.9935 24.5186 32.1609 24.9228 31.9242 25.1596L28.3034 28.7803C28.1648 28.9189 27.9742 28.9998 27.7721 28.9998H9.44293C9.10799 28.9998 8.94053 28.5956 9.17729 28.3588L12.7981 24.738Z" fill="white"/>
<path d="M12.7981 11.2194C12.9425 11.0808 13.133 11 13.3294 11H31.6585C31.9935 11 32.1609 11.4042 31.9242 11.641L28.3034 15.2618C28.1648 15.4004 27.9742 15.4812 27.7721 15.4812H9.44293C9.10799 15.4812 8.94053 15.077 9.17729 14.8402L12.7981 11.2194Z" fill="white"/>
<path d="M28.3034 17.9353C28.1648 17.7967 27.9742 17.7158 27.7721 17.7158H9.44293C9.10799 17.7158 8.94053 18.1201 9.17729 18.3568L12.7981 21.9776C12.9367 22.1162 13.1272 22.1971 13.3294 22.1971H31.6585C31.9935 22.1971 32.1609 21.7928 31.9242 21.5561L28.3034 17.9353Z" fill="white"/>
</svg>
