<svg width="149" height="38" viewBox="0 0 149 38" fill="none" xmlns="http://www.w3.org/2000/svg">
<path d="M37.6003 5.44438L32.3323 8.12973L6.88166 20.9997C6.78288 20.3448 6.74996 19.6898 6.74996 19.0349C6.74996 10.7823 13.5983 3.97072 21.9282 3.97072C24.5292 3.97072 27.0644 4.62568 29.3362 5.87011L32.3653 4.33095L32.8262 4.10171C29.6654 1.80934 25.8462 0.597656 21.9611 0.597656C11.7874 0.597656 3.42458 8.91568 3.42458 19.0349C3.42458 19.4933 3.4575 19.9846 3.49043 20.443C3.5892 21.7857 2.86486 23.0629 1.64665 23.6851L0.0662766 24.5038V28.2698L4.74156 25.8792L6.25609 25.126L7.7377 24.3728L34.5712 10.7823L37.6003 9.24317L43.823 6.09934V2.33331L37.6003 5.44438ZM43.7901 9.83263L9.2193 27.3201L6.19024 28.8593L0.000427246 32.0031V35.7692L6.15732 32.6581L11.4252 29.9727L36.9088 17.07C37.0076 17.7249 37.0405 18.3799 37.0405 19.0676C37.0405 27.3529 30.1922 34.1318 21.8623 34.1318C19.2613 34.1318 16.7261 33.4768 14.4543 32.1996L14.2568 32.2979L10.9972 33.968C14.158 36.2604 17.9772 37.4721 21.8953 37.4721C32.0689 37.4721 40.3988 29.154 40.4318 19.0676C40.4318 18.6091 40.3988 18.1179 40.3659 17.6594C40.2672 16.3168 40.9915 15.0396 42.1768 14.4174L43.7571 13.5987L43.7901 9.83263ZM95.8438 12.4525C90.5429 12.4525 86.4603 16.3168 86.4603 22.4407C86.4603 28.1388 89.8515 32.4943 95.9426 32.4943C100.651 32.4943 103.746 29.7435 104.602 26.4359H101.21C100.387 28.3353 98.807 29.6125 95.9096 29.6125C93.0781 29.6125 90.0491 27.6149 89.9503 23.4559H104.832C105.26 17.332 101.77 12.4525 95.8438 12.4525ZM90.0161 20.6723C90.3125 16.808 92.9794 15.2361 95.8438 15.2361C99.3338 15.2361 101.309 17.9542 101.408 20.6723H90.0161ZM66.5409 17.1355L63.5448 16.4478C61.0755 15.9238 59.2975 14.7776 59.2975 12.4852C59.2975 9.57065 62.8205 8.68645 64.8289 8.68645C67.4299 8.68645 70.426 9.73439 71.315 12.6817H74.8708C73.8173 7.70401 69.6688 5.60812 64.9935 5.60812C60.7791 5.60812 55.5771 7.70401 55.5771 12.6817C55.5771 16.9717 59.1329 18.9694 62.7217 19.7553L65.9812 20.443C69.2407 21.1962 71.5784 22.2769 71.5784 25.0278C71.5784 27.6149 69.3724 29.3833 65.4874 29.3833C61.4376 29.3833 58.9683 27.5166 58.3098 23.9471H54.721C55.4124 29.1213 59.2975 32.4616 65.4215 32.4616C70.6236 32.4616 75.3318 29.7435 75.3318 24.7003C75.3318 19.4933 70.5248 17.9869 66.5409 17.1355ZM82.3447 7.93324H79.0852V12.7472H76.0232V15.3671H79.0852V27.1564C79.0852 31.1517 79.9412 31.9704 83.6617 31.9704H86.0323V29.2523H84.386C82.5093 29.2523 82.3776 28.7611 82.3776 26.7634V15.3671H86.0323V12.7472H82.3776V7.93324H82.3447ZM147.206 12.649C144.638 12.7472 142.695 13.9262 141.741 16.1203V12.7472H138.547V32.0031H141.806V21.9167C141.806 17.6267 143.321 16.022 146.35 16.022C146.976 16.022 147.568 16.0548 148.194 16.153V12.6817C147.832 12.649 147.502 12.649 147.206 12.649ZM135.386 24.733L135.419 20.312C135.452 14.8431 133.147 12.387 127.715 12.387C123.961 12.387 120.241 14.7121 119.945 18.8711H123.336C123.467 16.4805 125.015 15.0396 127.748 15.0396C130.184 15.0396 132.127 16.1858 132.127 19.7226V20.181C124.225 21.0325 119.023 22.4079 119.023 26.9272C119.023 30.464 122.052 32.4616 125.673 32.4616C129.131 32.4616 131.106 31.3482 132.291 29.3505C132.324 30.2347 132.39 31.1189 132.555 32.0031H135.847C135.485 30.1692 135.32 28.0078 135.386 24.733ZM132.39 23.9798C132.39 28.5318 129.493 29.9072 126.431 29.9072C124.093 29.9072 122.677 28.6956 122.677 26.8617C122.677 24.2091 126.464 23.3249 132.39 22.7354V23.9798ZM107.071 6.06659H110.331V32.0031H107.071V6.06659ZM113.59 6.06659H116.85V32.0031H113.59V6.06659Z" fill="black"/>
</svg>
