<svg width="85" height="22" viewBox="0 0 85 22" fill="none" xmlns="http://www.w3.org/2000/svg">
<path d="M21.7135 3.28365L18.7135 4.81296L4.21928 12.1424C4.16303 11.7694 4.14428 11.3964 4.14428 11.0234C4.14428 6.32362 8.04439 2.4444 12.7883 2.4444C14.2696 2.4444 15.7134 2.8174 17.0072 3.5261L18.7322 2.64955L18.9947 2.519C17.1947 1.21349 15.0196 0.523438 12.807 0.523438C7.01311 0.523438 2.25047 5.26056 2.25047 11.0234C2.25047 11.2845 2.26922 11.5643 2.28797 11.8254C2.34422 12.59 1.93171 13.3174 1.23794 13.6718L0.337916 14.138V16.2828L3.00049 14.9213L3.86302 14.4924L4.70679 14.0634L19.9885 6.32362L21.7135 5.44706L25.2574 3.65665V1.51189L21.7135 3.28365ZM25.2386 5.78276L5.55057 15.7419L3.82552 16.6185L0.300415 18.4089V20.5536L3.80677 18.7819L6.80686 17.2526L21.3198 9.90443C21.376 10.2774 21.3948 10.6504 21.3948 11.0421C21.3948 15.7606 17.4947 19.6211 12.7508 19.6211C11.2695 19.6211 9.8257 19.2481 8.53191 18.5208L8.4194 18.5767L6.5631 19.5279C8.36315 20.8334 10.5382 21.5234 12.7695 21.5234C18.5634 21.5234 23.3073 16.7863 23.3261 11.0421C23.3261 10.781 23.3073 10.5012 23.2886 10.2401C23.2323 9.47548 23.6449 8.74813 24.3199 8.39377L25.2199 7.92752L25.2386 5.78276ZM54.8833 7.27477C51.8644 7.27477 49.5394 9.47548 49.5394 12.963C49.5394 16.2082 51.4707 18.6886 54.9395 18.6886C57.6208 18.6886 59.3834 17.122 59.8709 15.2384H57.9396C57.4708 16.3201 56.5708 17.0474 54.9208 17.0474C53.3082 17.0474 51.5832 15.9098 51.5269 13.5412H60.0022C60.2459 10.0536 58.2584 7.27477 54.8833 7.27477ZM51.5644 11.9559C51.7332 9.75523 53.252 8.86003 54.8833 8.86003C56.8708 8.86003 57.9959 10.408 58.0521 11.9559H51.5644ZM38.1953 9.94173L36.489 9.55008C35.0827 9.25168 34.0702 8.59893 34.0702 7.29342C34.0702 5.63356 36.0765 5.13001 37.2202 5.13001C38.7015 5.13001 40.4078 5.72681 40.9141 7.40532H42.9392C42.3391 4.57051 39.9766 3.3769 37.314 3.3769C34.9139 3.3769 31.9513 4.57051 31.9513 7.40532C31.9513 9.84848 33.9764 10.9861 36.0202 11.4337L37.8765 11.8254C39.7328 12.2543 41.0641 12.8698 41.0641 14.4364C41.0641 15.9098 39.8078 16.9169 37.5953 16.9169C35.2889 16.9169 33.8827 15.8538 33.5076 13.821H31.4638C31.8576 16.7677 34.0702 18.67 37.5578 18.67C40.5203 18.67 43.2017 17.122 43.2017 14.2499C43.2017 11.2845 40.4641 10.4266 38.1953 9.94173ZM47.1955 4.70106H45.3392V7.44262H43.5954V8.93463H45.3392V15.6487C45.3392 17.924 45.8268 18.3902 47.9456 18.3902H49.2956V16.8423H48.3581C47.2893 16.8423 47.2143 16.5625 47.2143 15.4249V8.93463H49.2956V7.44262H47.2143V4.70106H47.1955ZM84.1341 7.38667C82.6716 7.44262 81.5653 8.11403 81.0215 9.36358V7.44262H79.2027V18.4089H81.059V12.6646C81.059 10.2215 81.9216 9.30763 83.6466 9.30763C84.0029 9.30763 84.3404 9.32628 84.6966 9.38223V7.40532C84.4904 7.38667 84.3029 7.38667 84.1341 7.38667ZM77.4027 14.2686L77.4214 11.7508C77.4402 8.63623 76.1276 7.23747 73.0338 7.23747C70.8962 7.23747 68.7774 8.56163 68.6087 10.9302H70.54C70.615 9.56873 71.4963 8.74813 73.0526 8.74813C74.4401 8.74813 75.5464 9.40088 75.5464 11.4151V11.6762C71.0462 12.1611 68.0837 12.9444 68.0837 15.5181C68.0837 17.5323 69.8087 18.67 71.8713 18.67C73.8401 18.67 74.9651 18.0359 75.6401 16.8982C75.6589 17.4018 75.6964 17.9053 75.7901 18.4089H77.6652C77.4589 17.3645 77.3652 16.1336 77.4027 14.2686ZM75.6964 13.8396C75.6964 16.432 74.0463 17.2153 72.3025 17.2153C70.9712 17.2153 70.165 16.5252 70.165 15.4808C70.165 13.9702 72.3213 13.4666 75.6964 13.1309V13.8396ZM61.2772 3.638H63.1335V18.4089H61.2772V3.638ZM64.9898 3.638H66.8461V18.4089H64.9898V3.638Z" fill="#919191"/>
</svg>
