<svg width="41" height="40" viewBox="0 0 41 40" fill="none" xmlns="http://www.w3.org/2000/svg">
<rect x="0.398438" width="40" height="40" rx="20" fill="white"/>
<circle cx="20.3984" cy="20" r="20" fill="black"/>
<path d="M30.6017 11.1203L27.2085 12.8491L10.823 21.1951C10.7676 20.7725 10.7397 20.3467 10.7395 19.9205C10.7441 16.4603 12.5802 13.2611 15.5655 11.5117C18.5509 9.76222 22.2393 9.724 25.2603 11.4112L27.2025 10.4216L27.4923 10.2738C23.8645 7.64067 19.0664 7.2649 15.0729 9.30113C11.0794 11.3374 8.56554 15.4415 8.566 19.9241C8.566 20.2277 8.57753 20.5302 8.60058 20.8314C8.66659 21.7037 8.20206 22.5303 7.42261 22.9274L6.39844 23.4497V25.8855L9.41372 24.3486V24.3486L10.3902 23.8503L11.3524 23.3602V23.3602L28.6261 14.5588L30.5672 13.5704L34.5792 11.5257V9.09103L30.6017 11.1203Z" fill="white"/>
<path d="M34.5792 13.9629L12.3336 25.2896L10.3926 26.2803L6.39844 28.3156V30.749L10.3652 28.7281L13.7584 26.9993L30.1606 18.6414C30.216 19.0668 30.2439 19.4953 30.2441 19.9243C30.2419 23.3886 28.4037 26.5923 25.4139 28.3424C22.4241 30.0924 18.7307 30.1267 15.709 28.4324L15.5897 28.4956L13.4842 29.5687C17.1111 32.2018 21.9084 32.5785 25.9018 30.5437C29.8953 28.5088 32.4102 24.4063 32.4116 19.9243C32.4116 19.6179 32.3997 19.3115 32.377 19.0086C32.3111 18.1367 32.7751 17.3103 33.5538 16.9126L34.5792 16.3904V13.9629Z" fill="white"/>
</svg>
