<svg width="23" height="22" viewBox="0 0 23 22" fill="none" xmlns="http://www.w3.org/2000/svg">
<path d="M11.7 0.329102C17.5764 0.329102 22.4157 5.16843 22.4157 11.0448C22.4157 16.9643 17.5764 21.7604 11.7 21.7604C5.7805 21.7604 0.984375 16.9643 0.984375 11.0448C0.984375 5.16843 5.7805 0.329102 11.7 0.329102ZM16.6258 7.63131C16.669 7.50168 16.669 7.37206 16.6258 7.19922C16.6258 7.11281 16.5394 6.98318 16.4962 6.93998C16.3665 6.81035 16.1505 6.81035 16.0641 6.81035C15.6752 6.81035 15.0271 7.02639 12.0457 8.27943C11.0087 8.71152 8.93471 9.57568 5.82371 10.9583C5.30521 11.1744 5.04596 11.3472 5.00275 11.5633C4.95954 11.9089 5.52125 12.0386 6.16937 12.2546C6.73108 12.4274 7.46562 12.6435 7.8545 12.6435C8.20017 12.6435 8.58904 12.5138 9.02112 12.2114C11.9161 10.2238 13.4284 9.23002 13.5148 9.23002C13.6012 9.23002 13.6876 9.18681 13.7308 9.23002C13.8172 9.31643 13.8172 9.40285 13.774 9.44606C13.7308 9.6621 11.0087 12.1682 10.8359 12.341C10.231 12.9459 9.53962 13.3348 10.6198 14.0261C11.5272 14.6311 12.0457 15.0199 12.9963 15.6248C13.6012 16.0137 14.0765 16.489 14.6814 16.4458C14.9839 16.4026 15.2863 16.1433 15.416 15.3224C15.8048 13.4644 16.4962 9.31643 16.6258 7.63131Z" fill="#141B34"/>
</svg>
