<svg width="41" height="40" viewBox="0 0 41 40" fill="none" xmlns="http://www.w3.org/2000/svg">
<g clip-path="url(#clip0_324_3120)">
<path d="M20.3984 40C31.4441 40 40.3984 31.0457 40.3984 20C40.3984 8.95431 31.4441 0 20.3984 0C9.35274 0 0.398438 8.95431 0.398438 20C0.398438 31.0457 9.35274 40 20.3984 40Z" fill="#C3C3C3"/>
<path fill-rule="evenodd" clip-rule="evenodd" d="M14.8283 13.2139H26.0426C26.4711 13.2139 26.8283 13.2853 27.2569 13.4996C27.7569 13.7139 28.0426 14.071 28.1854 14.3567C28.1854 14.3567 28.1854 14.4282 28.2569 14.4282C28.4711 14.7853 28.614 15.2139 28.614 15.7139C28.614 16.1424 28.5426 16.571 28.2569 16.9996L21.1854 29.1424C21.0426 29.4282 20.7569 29.571 20.3997 29.571C20.114 29.571 19.8283 29.4282 19.614 29.1424L12.6854 16.9996C12.5426 16.7139 12.2569 16.3567 12.2569 15.7853C12.1854 15.2853 12.3283 14.8567 12.5426 14.4282C12.7569 13.9996 13.114 13.6424 13.614 13.4996C14.0426 13.2139 14.5426 13.2139 14.8283 13.2139ZM19.5426 14.9282H14.8283C14.5426 14.9282 14.3997 14.9282 14.3283 14.9996C14.1854 15.071 14.114 15.1424 14.0426 15.2853C13.9711 15.3567 13.9711 15.4996 13.9711 15.6424C13.9711 15.7139 14.0426 15.7853 14.1854 16.071L19.5426 25.3567V14.9282ZM21.2569 14.9282V25.4282L26.6854 16.071C26.7569 15.9282 26.7569 15.7853 26.7569 15.6424C26.7569 15.4996 26.7569 15.3567 26.6854 15.2853C26.614 15.2139 26.614 15.1424 26.5426 15.1424L26.4711 15.071C26.3283 14.9996 26.1854 14.9996 25.9711 14.9996H21.2569V14.9282Z" fill="white"/>
</g>
<defs>
<clipPath id="clip0_324_3120">
<rect width="40" height="40" fill="white" transform="translate(0.398438)"/>
</clipPath>
</defs>
</svg>
