<svg width="131" height="52" viewBox="0 0 131 52" fill="none" xmlns="http://www.w3.org/2000/svg">
<path d="M25.23 51.1002C39.1305 51.1002 50.3976 39.8186 50.3976 25.9002C50.3976 11.9818 39.1305 0.700195 25.23 0.700195C11.3296 0.700195 0.0625 11.9818 0.0625 25.9002C0.0625 39.8186 11.3296 51.1002 25.23 51.1002Z" fill="#BEBEBE"/>
<path d="M33.8272 14.7705H16.635C13.475 14.7705 11.4811 18.1795 13.0612 20.9481L23.6699 39.3678C24.3659 40.5732 26.0964 40.5732 26.7923 39.3678L37.4011 20.9481C38.9811 18.1795 36.9872 14.7705 33.8272 14.7705ZM23.6511 33.8306L21.3375 29.3481L15.7698 19.366C15.5064 18.8952 15.6757 18.3113 16.1272 18.0288C16.2776 17.9346 16.4469 17.897 16.6162 17.897H23.6323L23.6511 33.8306ZM34.6736 19.366L29.1059 29.3481L26.7923 33.8306V17.9158H33.8272C34.5984 17.897 35.0498 18.7257 34.6736 19.366Z" fill="#FCFCFE"/>
<path d="M66.4429 39.6694H71.9354V20.4963H79.5157V15.2793H58.8438V20.4963H66.4241C66.4429 20.4963 66.4429 39.6694 66.4429 39.6694ZM92.7014 40.0838C99.6234 40.0838 105.285 34.4147 105.285 27.4838C105.285 20.5528 99.6234 14.8838 92.7014 14.8838C85.7418 14.8838 80.1176 20.5528 80.1176 27.4838C80.1176 34.4147 85.7418 40.0838 92.7014 40.0838ZM92.7014 34.7914C88.7137 34.7914 85.6101 31.4201 85.6101 27.4838C85.6101 23.5475 88.7326 20.1762 92.7014 20.1762C96.6515 20.1762 99.7739 23.5475 99.7739 27.4838C99.7739 31.4201 96.6515 34.7914 92.7014 34.7914ZM130.321 39.6694V15.2793H124.829V30.3089L112.997 15.2793H108.295V39.6506H113.75V24.5833L125.619 39.6506H130.321V39.6694Z" fill="#BEBEBE"/>
</svg>
