<svg width="20" height="20" viewBox="0 0 20 20" fill="none" xmlns="http://www.w3.org/2000/svg">
<path d="M6.6665 5.0013C6.6665 3.42995 6.6665 2.64428 7.15466 2.15612C7.64281 1.66797 8.42849 1.66797 9.99984 1.66797C11.5712 1.66797 12.3569 1.66797 12.845 2.15612C13.3332 2.64428 13.3332 3.42995 13.3332 5.0013C13.3332 6.57265 13.3332 7.35833 12.845 7.84648C12.3569 8.33464 11.5712 8.33464 9.99984 8.33464C8.42849 8.33464 7.64281 8.33464 7.15466 7.84648C6.6665 7.35833 6.6665 6.57265 6.6665 5.0013Z" stroke="#FE7016" stroke-width="1.25"/>
<path d="M1.6665 15.834C1.6665 14.6555 1.6665 14.0662 2.03262 13.7001C2.39874 13.334 2.98799 13.334 4.1665 13.334C5.34502 13.334 5.93427 13.334 6.30039 13.7001C6.6665 14.0662 6.6665 14.6555 6.6665 15.834C6.6665 17.0125 6.6665 17.6018 6.30039 17.9679C5.93427 18.334 5.34502 18.334 4.1665 18.334C2.98799 18.334 2.39874 18.334 2.03262 17.9679C1.6665 17.6018 1.6665 17.0125 1.6665 15.834Z" stroke="#FE7016" stroke-width="1.25"/>
<path d="M13.3333 15.834C13.3333 14.6555 13.3333 14.0662 13.6994 13.7001C14.0655 13.334 14.6547 13.334 15.8333 13.334C17.0118 13.334 17.601 13.334 17.9671 13.7001C18.3333 14.0662 18.3333 14.6555 18.3333 15.834C18.3333 17.0125 18.3333 17.6018 17.9671 17.9679C17.601 18.334 17.0118 18.334 15.8333 18.334C14.6547 18.334 14.0655 18.334 13.6994 17.9679C13.3333 17.6018 13.3333 17.0125 13.3333 15.834Z" stroke="#FE7016" stroke-width="1.25"/>
<path d="M15.8333 13.334C15.6809 11.2898 14.8306 10.834 11.9559 10.834L9.99992 10.834L8.0439 10.834C5.16921 10.834 4.31892 11.2898 4.16658 13.334" stroke="#FE7016" stroke-width="1.25" stroke-linecap="round" stroke-linejoin="round"/>
</svg>
