<svg width="25" height="24" viewBox="0 0 25 24" fill="none" xmlns="http://www.w3.org/2000/svg">
<g clip-path="url(#clip0_1331_2741)">
<path d="M7.94596 21.7508C17.0026 21.7508 21.9562 14.2474 21.9562 7.74052C21.9562 7.5274 21.9562 7.31524 21.9418 7.10404C22.9055 6.407 23.7373 5.54392 24.3984 4.55524C23.4998 4.95364 22.5465 5.2148 21.5703 5.32996C22.5983 4.71465 23.3676 3.74674 23.7351 2.60644C22.7685 3.18005 21.7111 3.58427 20.6084 3.80164C19.8659 3.01222 18.8841 2.48948 17.8146 2.31432C16.7452 2.13917 15.6479 2.32135 14.6924 2.83269C13.737 3.34403 12.9767 4.15601 12.5292 5.14299C12.0817 6.12996 11.972 7.23691 12.217 8.29252C10.2593 8.19432 8.34419 7.68555 6.59589 6.79924C4.84759 5.91294 3.3052 4.6689 2.06884 3.14788C1.43917 4.23188 1.24631 5.51511 1.52954 6.7363C1.81276 7.9575 2.55078 9.02483 3.59332 9.721C2.80967 9.69804 2.04309 9.48663 1.35844 9.10468V9.16708C1.35875 10.3039 1.75229 11.4057 2.47231 12.2854C3.19233 13.1652 4.1945 13.7689 5.30884 13.994C4.58392 14.1917 3.82331 14.2206 3.08548 14.0784C3.40025 15.0568 4.01287 15.9123 4.83768 16.5254C5.66249 17.1385 6.65826 17.4785 7.6858 17.498C6.66488 18.3004 5.49575 18.8938 4.24531 19.244C2.99487 19.5942 1.68765 19.6944 0.398438 19.5389C2.65027 20.9839 5.27036 21.7504 7.94596 21.7469" fill="#1DA1F2"/>
</g>
<defs>
<clipPath id="clip0_1331_2741">
<rect width="24" height="24" fill="white" transform="translate(0.398438)"/>
</clipPath>
</defs>
</svg>
