<svg width="46" height="47" viewBox="0 0 46 47" fill="none" xmlns="http://www.w3.org/2000/svg">
<rect x="3" y="3.5" width="40" height="40" rx="20" fill="#F2F4F7"/>
<rect x="3" y="3.5" width="40" height="40" rx="20" stroke="#F9FAFB" stroke-width="6"/>
<g clip-path="url(#clip0_808_4566)">
<path d="M26.3326 26.8313L22.9992 23.498M22.9992 23.498L19.6659 26.8313M22.9992 23.498V30.998M29.9909 28.823C30.8037 28.3798 31.4458 27.6787 31.8158 26.8301C32.1858 25.9816 32.2627 25.034 32.0344 24.1369C31.8061 23.2397 31.2855 22.4442 30.5548 21.8758C29.8241 21.3074 28.925 20.9986 27.9992 20.998H26.9492C26.697 20.0223 26.2269 19.1166 25.5742 18.3488C24.9215 17.581 24.1033 16.9712 23.181 16.5651C22.2587 16.1591 21.2564 15.9674 20.2493 16.0045C19.2423 16.0416 18.2568 16.3065 17.3669 16.7793C16.477 17.2521 15.7058 17.9205 15.1114 18.7343C14.517 19.548 14.1148 20.4859 13.9351 21.4774C13.7553 22.469 13.8027 23.4884 14.0736 24.459C14.3445 25.4296 14.8319 26.3262 15.4992 27.0813" stroke="#475467" stroke-width="1.66667" stroke-linecap="round" stroke-linejoin="round"/>
</g>
<defs>
<clipPath id="clip0_808_4566">
<rect width="20" height="20" fill="white" transform="translate(13 13.5)"/>
</clipPath>
</defs>
</svg>
