<svg width="68" height="67" viewBox="0 0 68 67" fill="none" xmlns="http://www.w3.org/2000/svg">
<path d="M34 67C52.5647 67 67.5 52.0647 67.5 33.5C67.5 14.9353 52.5647 0 34 0C15.4353 0 0.5 14.9353 0.5 33.5C0.5 52.0647 15.4353 67 34 67Z" fill="#2775CA"/>
<path d="M43.2119 38.8043C43.2119 33.919 40.2806 32.244 34.4181 31.5462C30.2306 30.9877 29.3931 29.8712 29.3931 27.9168C29.3931 25.9624 30.7891 24.7065 33.5806 24.7065C36.0931 24.7065 37.4891 25.544 38.1869 27.6377C38.3266 28.0565 38.7453 28.3355 39.1641 28.3355H41.3972C41.9556 28.3355 42.3744 27.9168 42.3744 27.3587V27.219C41.8159 24.148 39.3034 21.7752 36.0931 21.4962V18.1462C36.0931 17.5877 35.6744 17.169 34.9766 17.0293H32.8828C32.3244 17.0293 31.9056 17.448 31.7659 18.1462V21.3565C27.5784 21.9149 24.9266 24.7065 24.9266 28.1962C24.9266 32.8024 27.7181 34.6168 33.5806 35.3149C37.4891 36.0127 38.7453 36.8502 38.7453 39.0837C38.7453 41.3171 36.7909 42.8524 34.1391 42.8524C30.5097 42.8524 29.2534 41.3168 28.8347 39.223C28.6953 38.6649 28.2766 38.3855 27.8578 38.3855H25.4847C24.9266 38.3855 24.5078 38.8043 24.5078 39.3627V39.5024C25.0659 42.9918 27.2994 45.5043 31.9056 46.2024V49.5524C31.9056 50.1105 32.3244 50.5293 33.0222 50.669H35.1159C35.6744 50.669 36.0931 50.2502 36.2328 49.5524V46.2024C40.4203 45.5043 43.2119 42.573 43.2119 38.8043V38.8043Z" fill="white"/>
<path fill-rule="evenodd" clip-rule="evenodd" d="M14.4563 26.6608C10.4081 37.409 15.9916 49.5527 26.8791 53.4608C27.2978 53.7402 27.7166 54.2983 27.7166 54.7171V56.6715C27.7166 56.9505 27.7166 57.0902 27.5769 57.2296C27.4375 57.788 26.8791 58.0671 26.3206 57.788C18.5041 55.2755 12.5019 49.2733 9.98939 41.4568C5.80189 28.1965 13.0603 14.0983 26.3206 9.91084C26.4603 9.77148 26.7394 9.77148 26.8791 9.77148C27.4375 9.91084 27.7166 10.3296 27.7166 10.888V12.8421C27.7166 13.5402 27.4375 13.959 26.8791 14.238C21.1563 16.3318 16.55 20.7983 14.4563 26.6608ZM40.4182 10.4694C40.5576 9.91094 41.116 9.63189 41.6745 9.91094C49.3514 12.4234 55.4932 18.4256 58.0057 26.3819C62.1932 39.6422 54.9348 53.7403 41.6745 57.9278C41.5348 58.0672 41.2557 58.0672 41.116 58.0672C40.5576 57.9278 40.2785 57.5091 40.2785 56.9506V54.9966C40.2785 54.2984 40.5576 53.8797 41.116 53.6006C46.8389 51.5069 51.4451 47.0403 53.5389 41.1778C57.587 30.4297 52.0035 18.2859 41.116 14.3778C40.6973 14.0984 40.2785 13.5403 40.2785 12.9819V11.0278C40.2785 10.7484 40.2785 10.6091 40.4182 10.4694Z" fill="white"/>
</svg>
