<svg width="20" height="21" viewBox="0 0 20 21" fill="none" xmlns="http://www.w3.org/2000/svg">
<path d="M17.3119 15.0352C17.9364 15.0352 18.433 14.6422 18.879 14.0928C19.7918 12.968 18.293 12.0692 17.7214 11.629C17.1403 11.1815 16.4914 10.928 15.8336 10.8685M15.0002 9.20182C16.1508 9.20182 17.0836 8.26908 17.0836 7.11849C17.0836 5.9679 16.1508 5.03516 15.0002 5.03516" stroke="#FE7016" stroke-width="1.25" stroke-linecap="round"/>
<path d="M2.68846 15.0352C2.06404 15.0352 1.56739 14.6422 1.12145 14.0928C0.20857 12.968 1.70739 12.0692 2.27903 11.629C2.86014 11.1815 3.50898 10.928 4.16683 10.8685M4.5835 9.20182C3.4329 9.20182 2.50016 8.26908 2.50016 7.11849C2.50016 5.9679 3.4329 5.03516 4.5835 5.03516" stroke="#FE7016" stroke-width="1.25" stroke-linecap="round"/>
<path d="M6.73667 12.6291C5.88518 13.1556 3.65265 14.2307 5.01241 15.576C5.67665 16.2331 6.41643 16.7031 7.34652 16.7031H12.6538C13.5839 16.7031 14.3237 16.2331 14.9879 15.576C16.3477 14.2307 14.1151 13.1556 13.2637 12.6291C11.2669 11.3945 8.73338 11.3945 6.73667 12.6291Z" stroke="#FE7016" stroke-width="1.25" stroke-linecap="round" stroke-linejoin="round"/>
<path d="M12.9168 6.28581C12.9168 7.89664 11.611 9.20247 10.0002 9.20247C8.38933 9.20247 7.0835 7.89664 7.0835 6.28581C7.0835 4.67498 8.38933 3.36914 10.0002 3.36914C11.611 3.36914 12.9168 4.67498 12.9168 6.28581Z" stroke="#FE7016" stroke-width="1.25"/>
</svg>
