<svg width="23" height="22" viewBox="0 0 23 22" fill="none" xmlns="http://www.w3.org/2000/svg">
<g clip-path="url(#clip0_1113_5789)">
<path d="M18.6862 3.4864C20.6954 5.49558 21.9391 8.12666 21.9391 10.9969C21.9391 16.8331 17.0597 21.6169 11.1756 21.6169C9.40564 21.6169 7.68348 21.1385 6.10483 20.3253L0.507812 21.7604L1.99078 16.2591C1.08187 14.6804 0.55565 12.8626 0.55565 10.9491C0.55565 5.11288 5.33943 0.329102 11.1756 0.329102C14.0459 0.329102 16.7248 1.47721 18.6862 3.4864ZM11.1756 19.7991C16.0551 19.7991 20.1213 15.8285 20.1213 10.9969C20.1213 8.60504 19.1167 6.4045 17.4424 4.73018C15.7681 3.05586 13.5675 2.14694 11.2235 2.14694C6.34402 2.14694 2.37349 6.11747 2.37349 10.9491C2.37349 12.6234 2.85186 14.2499 3.71294 15.685L3.95213 16.0199L3.04322 19.2729L6.39186 18.3639L6.67889 18.5553C8.06618 19.3685 9.59699 19.7991 11.1756 19.7991ZM16.0551 13.1975C16.2943 13.341 16.4856 13.3888 16.5335 13.5323C16.6291 13.628 16.6291 14.1542 16.39 14.7761C16.1508 15.398 15.0983 15.9721 14.62 16.0199C13.7589 16.1634 13.0892 16.1156 11.4148 15.3502C8.73591 14.2021 7.01375 11.5231 6.87024 11.3796C6.72673 11.1883 5.81781 9.9445 5.81781 8.60504C5.81781 7.31342 6.48754 6.69153 6.72673 6.4045C6.96591 6.11747 7.25294 6.06964 7.44429 6.06964C7.58781 6.06964 7.77916 6.06964 7.92267 6.06964C8.11402 6.06964 8.30537 6.0218 8.54456 6.54801C8.73591 7.07423 9.30997 8.36585 9.3578 8.50936C9.40564 8.65288 9.45348 8.79639 9.3578 8.98774C8.87943 9.99234 8.30537 9.9445 8.5924 10.4229C9.64483 12.1929 10.6494 12.8148 12.2281 13.5802C12.4673 13.7237 12.6108 13.6758 12.8021 13.5323C12.9456 13.341 13.4719 12.7191 13.6154 12.4799C13.8067 12.1929 13.9981 12.2407 14.2373 12.3364C14.4764 12.4321 15.7681 13.054 16.0551 13.1975Z" fill="#141B34"/>
</g>
<defs>
<clipPath id="clip0_1113_5789">
<rect width="21.4313" height="21.4313" fill="white" transform="translate(0.710938 0.105469)"/>
</clipPath>
</defs>
</svg>
