<svg width="41" height="40" viewBox="0 0 41 40" fill="none" xmlns="http://www.w3.org/2000/svg">
<rect x="0.398438" width="40" height="40" rx="20" fill="white"/>
<path d="M39.7956 24.8381C37.1244 35.5525 26.2725 42.0731 15.5568 39.4012C4.84566 36.7301 -1.67491 25.8775 0.997408 15.1639C3.66738 4.44838 14.5193 -2.07268 25.2317 0.598468C35.9465 3.26961 42.4667 14.1234 39.7953 24.8383L39.7955 24.8381H39.7956Z" fill="#23292F"/>
<path d="M30.232 8.33301H34.2679L25.8688 16.6493C22.8271 19.6593 17.8955 19.6593 14.8517 16.6493L6.44922 8.33301H10.4885L16.8696 14.6504C18.8042 16.5571 21.9113 16.5571 23.8459 14.6504L30.232 8.33301Z" fill="white"/>
<path d="M10.4371 31.4581H6.39844L14.8522 23.0906C17.8939 20.0805 22.8254 20.0805 25.8693 23.0906L34.323 31.4581H30.287L23.8513 25.0895C21.9167 23.1828 18.8096 23.1828 16.875 25.0895L10.4371 31.4581Z" fill="white"/>
</svg>
